<svg width="68" height="68" viewBox="0 0 68 68" fill="none" xmlns="http://www.w3.org/2000/svg">
<g clip-path="url(#clip0_2969_20944)">
<path d="M9.86861 33.1722C10.0647 27.3437 12.3716 21.7848 16.3598 17.53L16.3473 17.5189L9.51815 10.6897C3.72095 16.7615 0.400313 24.7795 0.207031 33.1722H9.8645H9.86861Z" fill="#C9FC01"/>
<path d="M17.5283 16.3627C21.7829 12.3748 27.3412 10.068 33.1692 9.87154C33.1684 9.86651 33.1684 9.86137 33.1692 9.85635V0.209961C24.7776 0.403243 16.7607 3.72342 10.6895 9.5197L17.5173 16.3503L17.5283 16.3627Z" fill="#C9FC01"/>
<path d="M50.4665 51.6359C46.2117 55.6246 40.6529 57.932 34.8242 58.1284C34.825 58.1334 34.825 58.1386 34.8242 58.1436V67.79C43.219 67.5988 51.2394 64.2779 57.3122 58.4789L50.483 51.6483L50.4665 51.6359Z" fill="#C9FC01"/>
<path d="M33.168 58.1284C27.3389 57.9323 21.7794 55.625 17.5243 51.6359L17.5146 51.6483L10.6855 58.4789C16.7584 64.2779 24.7788 67.5988 33.1736 67.79V58.1436C33.1709 58.1388 33.1691 58.1338 33.168 58.1284Z" fill="#C9FC01"/>
<path d="M16.3596 50.4686C12.3717 46.214 10.0649 40.6558 9.86841 34.8278H0.210938C0.401135 43.2219 3.7204 51.2423 9.51794 57.3157L16.3471 50.4852C16.3499 50.4788 16.3542 50.4731 16.3596 50.4686Z" fill="#C9FC01"/>
<path d="M58.1259 34.8278C57.9298 40.6563 55.623 46.2152 51.6348 50.47C51.6394 50.4724 51.6437 50.4757 51.6472 50.4797L58.4764 57.3157C64.2754 51.2429 67.5963 43.2225 67.7875 34.8278H58.13H58.1259Z" fill="#C9FC01"/>
<path d="M51.6348 17.5313C55.6226 21.7859 57.9294 27.3441 58.1259 33.1722H67.7834C67.5909 24.7805 64.2718 16.7631 58.4764 10.691L51.6472 17.5202L51.6348 17.5313Z" fill="#C9FC01"/>
<path d="M34.8242 9.87154C40.6527 10.0677 46.2116 12.3745 50.4665 16.3627L50.4775 16.3503L57.3053 9.5197C51.2338 3.72308 43.2163 0.4029 34.8242 0.209961V9.85635C34.825 9.86137 34.825 9.86651 34.8242 9.87154Z" fill="#C9FC01"/>
<path d="M21.9646 23H32.584L35.0224 25.9898L33.257 30.8722L30.8007 32.8471L32.0058 34.342L29.6304 40.9525L26.0719 42.6668H15.4525L13 39.677L14.7654 34.7946L17.2388 32.806L16.0307 31.3248L18.4062 24.7143L21.9646 23ZM23.0977 28.1293L22.3291 30.2688H27.554L28.3368 28.1293H23.0977ZM25.7075 35.3981H20.4825L19.6997 37.5375H24.9388L25.7075 35.3981Z" fill="#C9FC01"/>
<path d="M40.4638 23H51.0832L53.5216 25.9898L51.7562 30.8722L49.2999 32.8471L50.505 34.342L48.1296 40.9525L44.5711 42.6668H33.9517L31.4992 39.677L33.2646 34.7946L35.7379 32.806L34.5299 31.3248L36.9053 24.7143L40.4638 23ZM41.5969 28.1293L40.8282 30.2688H46.0532L46.836 28.1293H41.5969ZM44.2067 35.3981H38.9817L38.1989 37.5375H43.438L44.2067 35.3981Z" fill="#C9FC01"/>
</g>
<defs>
<clipPath id="clip0_2969_20944">
<rect width="67.58" height="67.58" fill="white" transform="translate(0.210938 0.210022)"/>
</clipPath>
</defs>
</svg>
