<svg width="70" height="70" viewBox="0 0 70 70" fill="none" xmlns="http://www.w3.org/2000/svg">
<g clip-path="url(#clip0_3003_3170)">
<path d="M36.0753 21.4989H33.9004V23.1888H37.3052C37.3751 22.9977 37.3966 22.7931 37.368 22.5922C37.3395 22.3913 37.2616 22.2 37.1411 22.0343C37.0206 21.8687 36.8609 21.7337 36.6754 21.6405C36.4899 21.5473 36.2841 21.4987 36.0753 21.4989Z" fill="black"/>
<path d="M36.0753 17.2744H33.9004V19.8093H36.0753C36.4214 19.8093 36.7533 19.6758 36.9981 19.4381C37.2428 19.2004 37.3803 18.878 37.3803 18.5419C37.3803 18.2057 37.2428 17.8833 36.9981 17.6456C36.7533 17.4079 36.4214 17.2744 36.0753 17.2744Z" fill="black"/>
<path d="M18.8881 23.1867C18.9281 23.1885 21.0964 23.1893 21.0964 23.1893C20.7678 21.5145 20.7678 19.7944 21.0964 18.1195H19.1099C18.418 18.1203 17.7546 18.3876 17.2653 18.8628C16.776 19.338 16.5008 19.9824 16.5 20.6544C16.5 20.6714 16.5077 20.9147 16.5077 20.9147C16.6273 22.1562 17.6477 23.1317 18.8881 23.1867Z" fill="black"/>
<path d="M43.0676 23.1893C43.4771 21.9238 43.574 20.5824 43.3506 19.2738C43.1272 17.9651 42.5896 16.7259 41.7815 15.6565C40.9734 14.587 39.9174 13.7175 38.6989 13.1181C37.4805 12.5187 36.1339 12.2064 34.7681 12.2064C33.4023 12.2064 32.0557 12.5187 30.8372 13.1181C29.6188 13.7175 28.5628 14.587 27.7547 15.6565C26.9465 16.7259 26.409 17.9651 26.1856 19.2738C25.9621 20.5824 26.0591 21.9238 26.4685 23.1893H32.1584V17.2746H31.2884C31.0577 17.2746 30.8364 17.1855 30.6732 17.0271C30.5101 16.8686 30.4184 16.6537 30.4184 16.4296C30.4184 16.2055 30.5101 15.9906 30.6732 15.8321C30.8364 15.6736 31.0577 15.5846 31.2884 15.5846H32.5064V15.0776C32.5064 14.8535 32.598 14.6386 32.7612 14.4801C32.9243 14.3217 33.1456 14.2327 33.3763 14.2327C33.6071 14.2327 33.8284 14.3217 33.9915 14.4801C34.1547 14.6386 34.2463 14.8535 34.2463 15.0776V15.5846H35.2903V15.0776C35.2903 14.9667 35.3128 14.8568 35.3565 14.7543C35.4002 14.6518 35.4643 14.5586 35.5451 14.4801C35.6259 14.4017 35.7218 14.3394 35.8273 14.297C35.9329 14.2545 36.046 14.2327 36.1603 14.2327C36.2745 14.2327 36.3876 14.2545 36.4932 14.297C36.5987 14.3394 36.6946 14.4017 36.7754 14.4801C36.8562 14.5586 36.9203 14.6518 36.964 14.7543C37.0077 14.8568 37.0302 14.9667 37.0302 15.0776V15.7351C37.5262 15.8942 37.9716 16.1747 38.3236 16.5494C38.6756 16.9242 38.9223 17.3807 39.0399 17.8749C39.1576 18.3692 39.1422 18.8845 38.9954 19.3713C38.8485 19.8582 38.575 20.3 38.2013 20.6544C38.5444 20.9791 38.8034 21.3781 38.9573 21.8187C39.1112 22.2592 39.1555 22.7289 39.0866 23.1893H43.0676Z" fill="black"/>
<path d="M59.9975 31.6389C59.9969 31.1909 59.8134 30.7613 59.4872 30.4445C59.1611 30.1277 58.7188 29.9495 58.2575 29.949H56.5176V33.3289H58.2575C58.7188 33.3283 59.1611 33.1501 59.4872 32.8333C59.8134 32.5165 59.9969 32.087 59.9975 31.6389Z" fill="black"/>
<path d="M24.6603 23.1894C24.2618 21.6909 24.2218 20.1237 24.5432 18.6079C24.8647 17.0921 25.5391 15.6678 26.5149 14.4442C27.4906 13.2207 28.7417 12.2303 30.1724 11.5489C31.6032 10.8675 33.1755 10.5133 34.7689 10.5133C36.3624 10.5133 37.9347 10.8675 39.3654 11.5489C40.7961 12.2303 42.0472 13.2207 43.023 14.4442C43.9987 15.6678 44.6731 17.0921 44.9946 18.6079C45.316 20.1237 45.276 21.6909 44.8775 23.1894H46.6689C47.0584 21.4619 47.0441 19.6715 46.6272 17.95C46.2103 16.2285 45.4013 14.6197 44.2598 13.2419C43.1183 11.8641 41.6732 10.7524 40.031 9.98865C38.3888 9.22485 36.5911 8.82837 34.7703 8.82837C32.9495 8.82837 31.1519 9.22485 29.5096 9.98865C27.8674 10.7524 26.4224 11.8641 25.2809 13.2419C24.1393 14.6197 23.3304 16.2285 22.9134 17.95C22.4965 19.6715 22.4823 21.4619 22.8718 23.1894H24.6603Z" fill="black"/>
<path d="M35.6403 41.7787C36.6013 41.7787 37.3803 41.0221 37.3803 40.0887C37.3803 39.1554 36.6013 38.3988 35.6403 38.3988C34.6794 38.3988 33.9004 39.1554 33.9004 40.0887C33.9004 41.0221 34.6794 41.7787 35.6403 41.7787Z" fill="black"/>
<path d="M35.6403 33.3289C36.6013 33.3289 37.3803 32.5722 37.3803 31.6389C37.3803 30.7056 36.6013 29.949 35.6403 29.949C34.6794 29.949 33.9004 30.7056 33.9004 31.6389C33.9004 32.5722 34.6794 33.3289 35.6403 33.3289Z" fill="black"/>
<path d="M48.69 18.1195H48.4436C48.7793 19.8314 48.7719 21.5901 48.4219 23.2993C49.6933 23.493 50.9115 23.9334 52.0039 24.5943C53.0962 25.2553 54.0403 26.1231 54.7798 27.1461V24.0343C54.778 22.4661 54.1358 20.9627 52.9942 19.8539C51.8525 18.745 50.3046 18.1213 48.69 18.1195Z" fill="black"/>
<path d="M58.2594 35.0191H48.6897C47.536 35.0191 46.4296 35.4642 45.6139 36.2565C44.7981 37.0489 44.3398 38.1235 44.3398 39.244C44.3398 40.3645 44.7981 41.4391 45.6139 42.2314C46.4296 43.0237 47.536 43.4688 48.6897 43.4688H56.6282V43.4662C57.5314 43.4379 58.3879 43.0698 59.0169 42.4396C59.6459 41.8095 59.9982 40.9666 59.9993 40.0889V34.5649C59.4709 34.863 58.8705 35.0197 58.2594 35.0191ZM48.6897 41.1144C48.3088 41.1144 47.9365 41.0047 47.6198 40.7992C47.3031 40.5937 47.0563 40.3015 46.9105 39.9598C46.7647 39.618 46.7266 39.2419 46.8009 38.8791C46.8752 38.5162 47.0586 38.1829 47.328 37.9214C47.5973 37.6598 47.9404 37.4816 48.314 37.4095C48.6876 37.3373 49.0748 37.3743 49.4267 37.5159C49.7786 37.6575 50.0793 37.8972 50.2909 38.2048C50.5025 38.5124 50.6155 38.874 50.6155 39.244C50.6149 39.7399 50.4118 40.2153 50.0508 40.566C49.6898 40.9166 49.2003 41.1139 48.6897 41.1144Z" fill="black"/>
<path d="M46.949 24.8795C46.949 24.8795 18.8746 24.878 18.8084 24.8751C17.9729 24.8371 17.1685 24.5557 16.5 24.0674V35.8641H24.3297V31.6393C24.3297 31.4152 24.4214 31.2002 24.5846 31.0418C24.7477 30.8833 24.969 30.7943 25.1997 30.7943H32.2697C32.4814 29.9978 32.985 29.3036 33.686 28.8419C34.387 28.3802 35.2373 28.1827 36.0775 28.2863C36.9178 28.39 37.6902 28.7877 38.2501 29.405C38.81 30.0222 39.1189 30.8166 39.1189 31.6393C39.1189 32.4619 38.81 33.2563 38.2501 33.8736C37.6902 34.4908 36.9178 34.8886 36.0775 34.9922C35.2373 35.0959 34.387 34.8983 33.686 34.4366C32.985 33.9749 32.4814 33.2808 32.2697 32.4842H26.0697V36.7091C26.0697 36.9332 25.978 37.1481 25.8149 37.3066C25.6517 37.465 25.4305 37.5541 25.1997 37.5541H16.5V39.244H32.2697C32.4814 38.4475 32.985 37.7533 33.686 37.2916C34.387 36.8299 35.2373 36.6324 36.0775 36.736C36.9178 36.8397 37.6902 37.2374 38.2501 37.8547C38.81 38.4719 39.1189 39.2663 39.1189 40.089C39.1189 40.9116 38.81 41.706 38.2501 42.3233C37.6902 42.9405 36.9178 43.3383 36.0775 43.4419C35.2373 43.5456 34.387 43.348 33.686 42.8863C32.985 42.4246 32.4814 41.7305 32.2697 40.934H16.5V42.6239H25.1997C25.4305 42.6239 25.6517 42.7129 25.8149 42.8714C25.978 43.0298 26.0697 43.2448 26.0697 43.4689V46.8487H32.2697C32.4814 46.0522 32.985 45.3581 33.686 44.8964C34.387 44.4347 35.2373 44.2371 36.0775 44.3408C36.9178 44.4444 37.6902 44.8422 38.2501 45.4594C38.81 46.0767 39.1189 46.8711 39.1189 47.6937C39.1189 48.5164 38.81 49.3108 38.2501 49.928C37.6902 50.5453 36.9178 50.943 36.0775 51.0467C35.2373 51.1503 34.387 50.9528 33.686 50.4911C32.985 50.0294 32.4814 49.3352 32.2697 48.5387H25.1997C24.969 48.5387 24.7477 48.4497 24.5846 48.2912C24.4214 48.1327 24.3297 47.9178 24.3297 47.6937V44.3138H16.5V48.5387C16.5023 50.5549 17.328 52.4879 18.7959 53.9135C20.2637 55.3392 22.2539 56.1412 24.3297 56.1434H46.949C49.0249 56.1412 51.0151 55.3392 52.4829 53.9135C53.9508 52.4879 54.7764 50.5549 54.7788 48.5387V45.1588H48.689C47.0738 45.1588 45.5249 44.5356 44.3828 43.4264C43.2408 42.3172 42.5992 40.8127 42.5992 39.244C42.5992 37.6753 43.2408 36.1709 44.3828 35.0616C45.5249 33.9524 47.0738 33.3292 48.689 33.3292H54.7788V32.4842C54.7764 30.468 53.9508 28.5351 52.4829 27.1094C51.0151 25.6837 49.0249 24.8818 46.949 24.8795Z" fill="black"/>
<path d="M35.6403 49.3834C36.6013 49.3834 37.3803 48.6268 37.3803 47.6935C37.3803 46.7602 36.6013 46.0035 35.6403 46.0035C34.6794 46.0035 33.9004 46.7602 33.9004 47.6935C33.9004 48.6268 34.6794 49.3834 35.6403 49.3834Z" fill="black"/>
<circle cx="35" cy="35" r="33.8806" stroke="black" stroke-width="2.23881"/>
</g>
<defs>
<clipPath id="clip0_3003_3170">
<rect width="70" height="70" fill="white"/>
</clipPath>
</defs>
</svg>
