<svg width="70" height="70" viewBox="0 0 70 70" fill="none" xmlns="http://www.w3.org/2000/svg">
<g clip-path="url(#clip0_3002_3151)">
<circle cx="35" cy="35" r="33.8806" stroke="black" stroke-width="2.23881"/>
<path fill-rule="evenodd" clip-rule="evenodd" d="M35.3205 16.4872C31.1528 16.4872 27.2861 17.6 24.0687 19.5083C22.9067 20.1976 21.334 19.9216 20.5561 18.8919C19.7782 17.8622 20.0897 16.4687 21.2518 15.7794C25.2766 13.3922 30.1189 12 35.3205 12C49.3045 12 60.641 22.0449 60.641 34.4359C60.641 46.8268 49.3045 56.8718 35.3205 56.8718C30.1189 56.8718 25.2766 55.4797 21.2518 53.0925C20.0897 52.403 19.7782 51.0095 20.5561 49.9799C21.334 48.9501 22.9067 48.6742 24.0687 49.3634C27.2861 51.2718 31.1528 52.3846 35.3205 52.3846C46.5079 52.3846 55.5769 44.3488 55.5769 34.4359C55.5769 24.5231 46.5079 16.4872 35.3205 16.4872ZM12.5321 25.4615C12.5321 24.2224 13.6657 23.2179 15.0641 23.2179H20.1282C21.5266 23.2179 22.6603 24.2224 22.6603 25.4615C22.6603 26.7006 21.5266 27.7051 20.1282 27.7051H15.0641C13.6657 27.7051 12.5321 26.7006 12.5321 25.4615ZM37.8526 23.2179C39.251 23.2179 40.3846 24.2224 40.3846 25.4615V26.3273C41.4934 26.3642 42.627 26.4515 43.5261 26.6491C44.8836 26.9474 45.7108 28.1642 45.3743 29.3668C45.0375 30.5695 43.6644 31.3027 42.3072 31.0043C41.4162 30.8085 39.7111 30.7811 37.8695 30.7921C37.7098 30.793 37.5953 30.7923 37.4998 30.7903C37.4507 30.7892 37.4112 30.788 37.3791 30.7867L37.3282 30.7849L37.3188 30.7847H37.2666C37.2046 30.7851 37.1 30.7867 36.9134 30.7912C36.1579 30.8127 35.691 30.9633 35.4853 31.0887C35.4061 31.1371 35.3858 31.1683 35.3772 31.1829C35.3686 31.1973 35.321 31.2803 35.3205 31.4948C35.3203 31.5926 35.3337 31.6471 35.3408 31.67C35.3471 31.6904 35.3522 31.6974 35.3534 31.6989C35.3549 31.7012 35.3646 31.7142 35.3934 31.7366C35.4238 31.7604 35.4783 31.7965 35.5674 31.8389C35.9842 32.0373 36.7653 32.1921 37.8526 32.1921C39.2232 32.1921 40.9903 32.3184 42.4925 33.0034C43.2871 33.3657 44.0604 33.908 44.6243 34.7015C45.192 35.5007 45.4487 36.4161 45.4487 37.3804C45.4487 39.2071 44.3415 40.5203 42.9202 41.3094C42.1462 41.739 41.2693 42.026 40.3846 42.2189V43.4103C40.3846 44.6494 39.251 45.6538 37.8526 45.6538C36.4541 45.6538 35.3205 44.6494 35.3205 43.4103V42.4926C34.5366 42.4639 33.6534 42.4015 32.4745 42.271C31.0867 42.1173 30.1025 40.9959 30.2759 39.7664C30.4494 38.537 31.7149 37.6646 33.1024 37.8183C35.0757 38.0369 35.9621 38.0328 37.4239 38.0259C37.6553 38.025 37.9012 38.0238 38.1681 38.0234C39.2118 37.9043 39.882 37.701 40.2314 37.5069C40.3163 37.4598 40.3621 37.4241 40.3839 37.4046C40.3844 37.3983 40.3846 37.3905 40.3846 37.3804C40.3846 37.2505 40.3677 37.1733 40.3565 37.1356C40.3507 37.1168 40.3456 37.1053 40.3431 37.0999C40.3403 37.0943 40.3388 37.0923 40.3388 37.0921L40.336 37.0892C40.334 37.0871 40.3289 37.082 40.319 37.0744C40.299 37.0589 40.2557 37.0297 40.1757 36.9934C39.7789 36.8125 39.014 36.6793 37.8526 36.6793C36.4078 36.6793 34.6546 36.498 33.1713 35.7921C31.5118 35.0022 30.2524 33.5591 30.2564 31.4871C30.26 29.6866 31.1687 28.2748 32.6125 27.3934C33.4584 26.8771 34.4075 26.5887 35.3205 26.4397V25.4615C35.3205 24.2224 36.4541 23.2179 37.8526 23.2179ZM10 34.4359C10 33.1968 11.1336 32.1923 12.5321 32.1923H20.1282C21.5266 32.1923 22.6603 33.1968 22.6603 34.4359C22.6603 35.675 21.5266 36.6795 20.1282 36.6795H12.5321C11.1336 36.6795 10 35.675 10 34.4359ZM12.5321 43.4103C12.5321 42.1711 13.6657 41.1667 15.0641 41.1667H20.1282C21.5266 41.1667 22.6603 42.1711 22.6603 43.4103C22.6603 44.6494 21.5266 45.6538 20.1282 45.6538H15.0641C13.6657 45.6538 12.5321 44.6494 12.5321 43.4103Z" fill="black"/>
</g>
<defs>
<clipPath id="clip0_3002_3151">
<rect width="70" height="70" fill="white"/>
</clipPath>
</defs>
</svg>
