<svg width="70" height="70" viewBox="0 0 70 70" fill="none" xmlns="http://www.w3.org/2000/svg">
<g clip-path="url(#clip0_3003_3167)">
<path d="M28.3029 16.7822C29.9178 15.1656 32.109 14.2569 34.3938 14.2569C36.6789 14.2569 38.8701 15.1656 40.4846 16.7822C40.7658 17.063 41.2212 17.063 41.502 16.7822C41.7832 16.5014 41.7832 16.0456 41.502 15.7648C39.6179 13.8772 37.0607 12.8167 34.3938 12.8167C31.7268 12.8167 29.1696 13.8772 27.2855 15.7648C27.0135 16.0466 27.0173 16.4944 27.2943 16.7713C27.5712 17.0483 28.019 17.0521 28.3008 16.7801L28.3029 16.7822Z" fill="black"/>
<path d="M38.9614 19.7424C39.2521 19.7424 39.5136 19.5674 39.6247 19.2992C39.7359 19.0307 39.6745 18.7222 39.4691 18.5167C38.1249 17.1683 36.299 16.4107 34.395 16.4107C32.4909 16.4107 30.6654 17.1683 29.3209 18.5167C29.1343 18.6969 29.0593 18.9641 29.1249 19.2151C29.1908 19.4661 29.3868 19.6621 29.6378 19.7277C29.8888 19.7936 30.156 19.7185 30.3362 19.532C31.4114 18.4533 32.872 17.8467 34.395 17.8467C35.9183 17.8467 37.3789 18.4533 38.4538 19.532C38.5884 19.6666 38.771 19.7424 38.9614 19.7424Z" fill="black"/>
<path d="M31.3485 21.2566C31.1612 21.4361 31.0852 21.7022 31.1493 21.9535C31.2138 22.2049 31.4084 22.4019 31.6591 22.4689C31.9094 22.5362 32.1769 22.4629 32.3582 22.2775C33.4997 21.1934 35.2905 21.1934 36.432 22.2775C36.7153 22.5485 37.1634 22.5425 37.4389 22.2638C37.7145 21.9851 37.7159 21.5367 37.4417 21.2566C35.7558 19.5821 33.0345 19.5821 31.3485 21.2566Z" fill="black"/>
<path d="M44.4473 32.2069C44.4473 32.6034 44.7688 32.9249 45.1653 32.9249H53.7814C54.1779 32.9249 54.4994 32.6034 54.4994 32.2069V31.4889H44.4473V32.2069Z" fill="black"/>
<path d="M54.4994 16.4107H44.4473V30.0529H54.4994V16.4107ZM47.3193 24.3088H45.8833V22.8728H47.3193V24.3088ZM50.1914 24.3088H48.7553V22.8728H50.1914V24.3088ZM53.0634 24.3088H51.6274V22.8728H53.0634V24.3088Z" fill="black"/>
<path d="M54.4996 51.5931H38.5807C38.2753 52.4531 37.462 53.028 36.5494 53.0291H31.5233C30.6107 53.028 29.7973 52.4531 29.492 51.5931H14.291V52.3111C14.291 53.501 15.2555 54.4651 16.445 54.4651H52.3456C53.5352 54.4651 54.4996 53.501 54.4996 52.3111V51.5931Z" fill="black"/>
<path d="M53.7814 14.2567H45.1653C44.7688 14.2567 44.4473 14.5782 44.4473 14.9747H54.4994C54.4994 14.5782 54.1779 14.2567 53.7814 14.2567Z" fill="black"/>
<path d="M15.7266 26.4633V50.1576H30.8048V50.8756C30.8048 51.2722 31.1263 51.5936 31.5228 51.5936H36.5489C36.9454 51.5936 37.2669 51.2722 37.2669 50.8756V50.1576H53.0631V34.3614H51.6271V48.7216H17.1626V27.1813H43.011V25.7452H16.4446C16.0481 25.7452 15.7266 26.0667 15.7266 26.4633Z" fill="black"/>
<path d="M43.01 32.2071V28.6171H18.5977V47.2854H50.1902V34.3612H45.1641C43.9745 34.3612 43.01 33.397 43.01 32.2071ZM32.2399 38.6692H30.8038V37.2332H32.2399V38.6692ZM35.1119 38.6692H33.6759V37.2332H35.1119V38.6692ZM37.984 38.6692H36.5479V37.2332H37.984V38.6692Z" fill="black"/>
<circle cx="35" cy="35" r="33.8806" stroke="black" stroke-width="2.23881"/>
</g>
<defs>
<clipPath id="clip0_3003_3167">
<rect width="70" height="70" fill="white"/>
</clipPath>
</defs>
</svg>
