<svg width="70" height="70" viewBox="0 0 70 70" fill="none" xmlns="http://www.w3.org/2000/svg">
<g clip-path="url(#clip0_3002_3147)">
<path d="M44.0121 27.213H43.0805V25.4599C43.0805 20.8098 39.2514 17.0266 34.5447 17.0266C29.8382 17.0266 26.009 20.8098 26.009 25.4599V27.213H25.0775C23.7499 27.213 22.6698 28.2801 22.6698 29.5918V45.0557C22.6698 46.3674 23.7499 47.4345 25.0775 47.4345H44.0121C45.3397 47.4345 46.4198 46.3674 46.4198 45.0557V29.5918C46.4196 28.2801 45.3396 27.213 44.0121 27.213ZM33.4603 37.9604C32.7658 37.5729 32.3343 36.8435 32.3343 36.0569C32.3343 34.8528 33.3258 33.8733 34.5446 33.8733C35.7634 33.8733 36.7548 34.8529 36.7548 36.0569C36.7548 36.8436 36.3233 37.5729 35.6288 37.9604C35.3658 38.1071 35.2031 38.3825 35.2031 38.6809V40.7742H33.8859V38.6809C33.886 38.3825 33.7234 38.1071 33.4603 37.9604ZM30.5962 25.46C30.5962 23.3089 32.3675 21.5589 34.5446 21.5589C36.7218 21.5589 38.4931 23.309 38.4931 25.46V27.2131H30.5962V25.46ZM53.0896 35.5629C53.0896 40.8645 50.7864 45.3024 46.4289 48.3966L34.5447 56.8358L22.6602 48.3966C18.3031 45.3026 16 40.8648 16 35.5629V22.7056C19.8757 20.9596 23.044 17.8292 24.8112 14H44.2783C46.0454 17.8292 49.2137 20.9595 53.0894 22.7055L53.0896 35.5629Z" fill="black"/>
<path d="M32.3343 36.0569C32.3343 36.8435 32.7658 37.5729 33.4603 37.9604C33.7234 38.1071 33.886 38.3825 33.8859 38.6809V40.7742H35.2031V38.6809C35.2031 38.3825 35.3658 38.1071 35.6288 37.9604C36.3233 37.5729 36.7548 36.8436 36.7548 36.0569C36.7548 34.8529 35.7634 33.8733 34.5446 33.8733C33.3258 33.8733 32.3343 34.8528 32.3343 36.0569Z" fill="black"/>
<circle cx="35" cy="35" r="33.8806" stroke="black" stroke-width="2.23881"/>
</g>
<defs>
<clipPath id="clip0_3002_3147">
<rect width="70" height="70" fill="white"/>
</clipPath>
</defs>
</svg>
