<svg width="70" height="70" viewBox="0 0 70 70" fill="none" xmlns="http://www.w3.org/2000/svg">
<g clip-path="url(#clip0_3002_3157)">
<circle cx="35" cy="35" r="33.8806" stroke="black" stroke-width="2.23881"/>
<path d="M43.2786 55.3267C43.2103 56.0038 42.9597 56.6423 42.5596 57.1589C42.1594 57.6755 41.6283 58.0461 41.0356 58.2225L37.1064 59.3915C36.3273 59.6159 35.4999 59.4893 34.8044 59.0394C34.1089 58.5895 33.6018 57.8527 33.3934 56.9894C33.1851 56.1262 33.2924 55.2066 33.6921 54.4308C34.0917 53.6551 34.7513 53.0861 35.5271 52.8479L39.4562 51.6789C39.961 51.5284 40.4922 51.5245 40.9987 51.6676C41.5052 51.8107 41.9701 52.096 42.3488 52.496C45.3174 51.1702 47.8126 48.8004 49.4522 45.7496H48.4508C45.4552 45.7496 43.0271 43.0537 43.0271 39.7277V33.7058C43.0271 30.3798 45.4552 27.6839 48.4508 27.6839H49.8067C50.0023 27.6839 50.1959 27.6952 50.3864 27.7177C48.3135 20.9356 42.322 16.0164 35.2305 16.0164C28.1389 16.0164 22.1474 20.9356 20.0745 27.7177C20.265 27.6952 20.4586 27.6839 20.6542 27.6839H22.0101C25.0057 27.6839 27.4339 30.3798 27.4339 33.7058V39.7277C27.4339 43.0537 25.0057 45.7496 22.0101 45.7496H20.6542C17.6586 45.7496 15.2305 43.0537 15.2305 39.7277V33.7058C15.2305 33.5485 15.2359 33.3926 15.2464 33.2383C15.2357 33.1437 15.2304 33.0484 15.2305 32.953C15.2305 21.085 24.202 11.5 35.2305 11.5C46.2589 11.5 55.2305 21.085 55.2305 32.953C55.2305 33.0498 55.225 33.145 55.2145 33.2383C55.225 33.3926 55.2305 33.5485 55.2305 33.7058V39.7277C55.2305 41.7401 54.3417 43.5215 52.9759 44.6152C52.0979 47.0372 50.7855 49.2358 49.1185 51.0772C47.4514 52.9185 45.4645 54.3643 43.2786 55.3267Z" fill="black"/>
</g>
<defs>
<clipPath id="clip0_3002_3157">
<rect width="70" height="70" fill="white"/>
</clipPath>
</defs>
</svg>
