<svg width="70" height="70" viewBox="0 0 70 70" fill="none" xmlns="http://www.w3.org/2000/svg">
<g clip-path="url(#clip0_3003_3164)">
<path d="M27.1828 19.779L22.1016 24.9185H48.7558L43.6737 19.779H37.8291L39.621 17.0912C39.924 17.1681 40.2411 17.2092 40.5677 17.2092C42.6932 17.2092 44.4223 15.48 44.4223 13.3546C44.4223 11.2292 42.6932 9.5 40.5677 9.5C38.4423 9.5 36.7131 11.2292 36.7131 13.3546C36.7131 14.2203 37.0001 15.0201 37.4838 15.6643L35.4282 18.7475L33.3727 15.6643C33.8564 15.0201 34.1434 14.2203 34.1434 13.3546C34.1434 11.2292 32.4142 9.5 30.2888 9.5C28.1633 9.5 26.4341 11.2292 26.4341 13.3546C26.4341 15.48 28.1633 17.2092 30.2888 17.2092C30.6154 17.2092 30.9325 17.1681 31.2355 17.0913L33.0274 19.779H27.1828Z" fill="black"/>
<path d="M51.2966 27.4882H19.5612C15.6298 32.2228 13.5 35.5843 13.5 41.7931C13.5 48.1694 18.6875 53.3569 25.0638 53.3569H45.7931C52.1695 53.3569 57.3569 48.1694 57.3569 41.7931C57.3569 35.5936 55.2354 32.2321 51.2966 27.4882ZM35.4285 37.9384C37.5536 37.9384 39.2831 39.6679 39.2831 41.7931C39.2831 43.4677 38.2089 44.8973 36.7133 45.4267V48.2174H34.1436V45.4267C32.648 44.8973 31.5739 43.4677 31.5739 41.7931H34.1436C34.1436 42.5014 34.7201 43.0779 35.4285 43.0779C36.1369 43.0779 36.7133 42.5014 36.7133 41.7931C36.7133 41.0847 36.1369 40.5082 35.4285 40.5082C33.3033 40.5082 31.5739 38.7787 31.5739 36.6536C31.5739 34.979 32.648 33.5493 34.1436 33.02V30.2292H36.7133V33.02C38.2089 33.5493 39.2831 34.979 39.2831 36.6536H36.7133C36.7133 35.9452 36.1369 35.3687 35.4285 35.3687C34.7201 35.3687 34.1436 35.9452 34.1436 36.6536C34.1436 37.362 34.7201 37.9384 35.4285 37.9384Z" fill="black"/>
<circle cx="35" cy="35" r="33.8806" stroke="black" stroke-width="2.23881"/>
</g>
<defs>
<clipPath id="clip0_3003_3164">
<rect width="70" height="70" fill="white"/>
</clipPath>
</defs>
</svg>
