<svg width="119" height="119" viewBox="0 0 119 119" fill="none" xmlns="http://www.w3.org/2000/svg">
<path d="M58.8434 41.063H55.3789V43.8346H60.8026C60.9138 43.5211 60.9481 43.1855 60.9026 42.856C60.8571 42.5265 60.7331 42.2128 60.5411 41.9412C60.3492 41.6695 60.0947 41.448 59.7993 41.2952C59.5039 41.1424 59.176 41.0627 58.8434 41.063Z" fill="black"/>
<path d="M58.8434 34.1343H55.3789V38.2917H58.8434C59.3947 38.2917 59.9235 38.0727 60.3133 37.6828C60.7031 37.293 60.9221 36.7643 60.9221 36.213C60.9221 35.6617 60.7031 35.1329 60.3133 34.7431C59.9235 34.3533 59.3947 34.1343 58.8434 34.1343Z" fill="black"/>
<path d="M31.4661 43.8305C31.5299 43.8335 34.9838 43.8348 34.9838 43.8348C34.4603 41.088 34.4603 38.2669 34.9838 35.52H31.8195C30.7173 35.5213 29.6606 35.9597 28.8812 36.7391C28.1018 37.5185 27.6634 38.5752 27.6621 39.6774C27.6621 39.7053 27.6744 40.1043 27.6744 40.1043C27.865 42.1405 29.4903 43.7403 31.4661 43.8305Z" fill="black"/>
<path d="M69.9829 43.8345C70.6352 41.759 70.7896 39.559 70.4337 37.4127C70.0777 35.2664 69.2215 33.2341 67.9342 31.4802C66.6469 29.7262 64.9648 28.3001 63.0239 27.317C61.083 26.334 58.938 25.8218 56.7623 25.8218C54.5867 25.8218 52.4417 26.334 50.5008 27.317C48.5599 28.3001 46.8778 29.7262 45.5905 31.4802C44.3032 33.2341 43.4469 35.2664 43.091 37.4127C42.7351 39.559 42.8895 41.759 43.5418 43.8345H52.6053V34.1339H51.2195C50.8519 34.1339 50.4994 33.9879 50.2396 33.728C49.9797 33.4681 49.8337 33.1157 49.8337 32.7481C49.8337 32.3806 49.9797 32.0281 50.2396 31.7682C50.4994 31.5083 50.8519 31.3623 51.2195 31.3623H53.1596V30.5308C53.1596 30.1633 53.3056 29.8108 53.5655 29.5509C53.8254 29.291 54.1779 29.145 54.5454 29.145C54.9129 29.145 55.2654 29.291 55.5253 29.5509C55.7852 29.8108 55.9312 30.1633 55.9312 30.5308V31.3623H57.5942V30.5308C57.5942 30.3488 57.63 30.1686 57.6996 30.0005C57.7693 29.8324 57.8714 29.6796 58.0001 29.5509C58.1287 29.4222 58.2815 29.3202 58.4496 29.2505C58.6178 29.1809 58.798 29.145 58.98 29.145C59.1619 29.145 59.3422 29.1809 59.5103 29.2505C59.6784 29.3202 59.8312 29.4222 59.9599 29.5509C60.0886 29.6796 60.1906 29.8324 60.2603 30.0005C60.3299 30.1686 60.3658 30.3488 60.3658 30.5308V31.6092C61.1558 31.8701 61.8653 32.33 62.426 32.9447C62.9867 33.5593 63.3797 34.308 63.5671 35.1186C63.7545 35.9292 63.7301 36.7744 63.4961 37.5728C63.2621 38.3712 62.8265 39.0959 62.2312 39.6771C62.7777 40.2096 63.1904 40.8639 63.4355 41.5865C63.6806 42.3091 63.7512 43.0794 63.6415 43.8345H69.9829Z" fill="black"/>
<path d="M96.9524 57.6925C96.9515 56.9577 96.6592 56.2532 96.1396 55.7336C95.6201 55.2141 94.9156 54.9218 94.1808 54.9209H91.4092V60.4641H94.1808C94.9156 60.4632 95.6201 60.171 96.1396 59.6514C96.6592 59.1318 96.9515 58.4273 96.9524 57.6925Z" fill="black"/>
<path d="M40.6604 43.8347C40.0257 41.3771 39.9619 38.8068 40.4739 36.3208C40.986 33.8347 42.0603 31.4988 43.6146 29.4921C45.1688 27.4854 47.1618 25.8611 49.4408 24.7436C51.7199 23.6261 54.2244 23.0451 56.7627 23.0451C59.3009 23.0451 61.8055 23.6261 64.0845 24.7436C66.3635 25.8611 68.3565 27.4854 69.9108 29.4921C71.4651 31.4988 72.5394 33.8347 73.0514 36.3208C73.5635 38.8068 73.4997 41.3771 72.8649 43.8347H75.7185C76.3389 41.0014 76.3162 38.0651 75.6521 35.2417C74.988 32.4184 73.6994 29.7798 71.881 27.5202C70.0626 25.2606 67.7608 23.4373 65.1448 22.1847C62.5289 20.932 59.6654 20.2817 56.7649 20.2817C53.8645 20.2817 51.001 20.932 48.3851 22.1847C45.7691 23.4373 43.4673 25.2606 41.6489 27.5202C39.8305 29.7798 38.5419 32.4184 37.8778 35.2417C37.2137 38.0651 37.191 41.0014 37.8114 43.8347H40.6604Z" fill="black"/>
<path d="M58.1505 74.3225C59.6812 74.3225 60.9221 73.0816 60.9221 71.5509C60.9221 70.0202 59.6812 68.7793 58.1505 68.7793C56.6198 68.7793 55.3789 70.0202 55.3789 71.5509C55.3789 73.0816 56.6198 74.3225 58.1505 74.3225Z" fill="black"/>
<path d="M58.1505 60.4641C59.6812 60.4641 60.9221 59.2232 60.9221 57.6925C60.9221 56.1618 59.6812 54.9209 58.1505 54.9209C56.6198 54.9209 55.3789 56.1618 55.3789 57.6925C55.3789 59.2232 56.6198 60.4641 58.1505 60.4641Z" fill="black"/>
<path d="M78.936 35.52H78.5434C79.0781 38.3276 79.0663 41.212 78.5088 44.0152C80.5341 44.3328 82.4746 45.0552 84.2147 46.1391C85.9547 47.2231 87.4586 48.6464 88.6366 50.3242V45.2206C88.6337 42.6488 87.6107 40.1831 85.7921 38.3645C83.9736 36.5459 81.5078 35.5229 78.936 35.52Z" fill="black"/>
<path d="M94.1826 63.2361H78.9388C77.1011 63.2361 75.3387 63.9661 74.0392 65.2655C72.7398 66.565 72.0098 68.3274 72.0098 70.1651C72.0098 72.0028 72.7398 73.7652 74.0392 75.0646C75.3387 76.3641 77.1011 77.0941 78.9388 77.0941H91.5842V77.0898C93.0229 77.0434 94.3873 76.4397 95.3893 75.4062C96.3912 74.3727 96.9524 72.9903 96.9542 71.5509V62.4912C96.1124 62.98 95.1561 63.237 94.1826 63.2361ZM78.9388 73.2327C78.3321 73.2327 77.739 73.0528 77.2345 72.7158C76.73 72.3787 76.3368 71.8996 76.1046 71.339C75.8725 70.7785 75.8117 70.1617 75.9301 69.5666C76.0484 68.9716 76.3406 68.425 76.7696 67.9959C77.1986 67.5669 77.7452 67.2748 78.3403 67.1564C78.9354 67.038 79.5522 67.0988 80.1127 67.331C80.6733 67.5631 81.1524 67.9563 81.4894 68.4608C81.8265 68.9653 82.0064 69.5584 82.0064 70.1651C82.0055 70.9784 81.682 71.7581 81.1069 72.3332C80.5318 72.9083 79.7521 73.2318 78.9388 73.2327Z" fill="black"/>
<path d="M76.1652 46.6063C76.1652 46.6063 31.4447 46.6039 31.3392 46.5991C30.0083 46.5368 28.7269 46.0752 27.6621 45.2744V64.6218H40.1343V57.6928C40.1343 57.3252 40.2803 56.9727 40.5402 56.7129C40.8001 56.453 41.1526 56.307 41.5201 56.307H52.782C53.1193 55.0006 53.9215 53.8621 55.0381 53.1049C56.1548 52.3477 57.5093 52.0237 58.8477 52.1937C60.1861 52.3637 61.4166 53.016 62.3085 54.0284C63.2004 55.0407 63.6925 56.3436 63.6925 57.6928C63.6925 59.042 63.2004 60.3448 62.3085 61.3572C61.4166 62.3695 60.1861 63.0218 58.8477 63.1918C57.5093 63.3618 56.1548 63.0378 55.0381 62.2806C53.9215 61.5234 53.1193 60.3849 52.782 59.0786H42.9059V66.0076C42.9059 66.3751 42.7599 66.7276 42.5001 66.9875C42.2402 67.2474 41.8877 67.3934 41.5201 67.3934H27.6621V70.165H52.782C53.1193 68.8587 53.9215 67.7202 55.0381 66.963C56.1548 66.2057 57.5093 65.8818 58.8477 66.0518C60.1861 66.2218 61.4166 66.8741 62.3085 67.8864C63.2004 68.8988 63.6925 70.2016 63.6925 71.5508C63.6925 72.9 63.2004 74.2029 62.3085 75.2152C61.4166 76.2275 60.1861 76.8798 58.8477 77.0498C57.5093 77.2198 56.1548 76.8959 55.0381 76.1386C53.9215 75.3814 53.1193 74.2429 52.782 72.9366H27.6621V75.7082H41.5201C41.8877 75.7082 42.2402 75.8542 42.5001 76.1141C42.7599 76.374 42.9059 76.7265 42.9059 77.094V82.6372H52.782C53.1193 81.3309 53.9215 80.1924 55.0381 79.4352C56.1548 78.678 57.5093 78.354 58.8477 78.524C60.1861 78.694 61.4166 79.3463 62.3085 80.3586C63.2004 81.371 63.6925 82.6739 63.6925 84.023C63.6925 85.3722 63.2004 86.6751 62.3085 87.6874C61.4166 88.6998 60.1861 89.3521 58.8477 89.5221C57.5093 89.6921 56.1548 89.3681 55.0381 88.6109C53.9215 87.8537 53.1193 86.7152 52.782 85.4088H41.5201C41.1526 85.4088 40.8001 85.2628 40.5402 85.0029C40.2803 84.7431 40.1343 84.3906 40.1343 84.023V78.4798H27.6621V85.4088C27.6658 88.7155 28.9811 91.8857 31.3192 94.2239C33.6574 96.5621 36.8276 97.8774 40.1343 97.8811H76.1652C79.4719 97.8774 82.6421 96.5621 84.9803 94.2239C87.3185 91.8857 88.6337 88.7155 88.6375 85.4088V79.8656H78.9368C76.3641 79.8656 73.8967 78.8436 72.0775 77.0244C70.2582 75.2052 69.2362 72.7378 69.2362 70.165C69.2362 67.5922 70.2582 65.1248 72.0775 63.3056C73.8967 61.4864 76.3641 60.4644 78.9368 60.4644H88.6375V59.0786C88.6337 55.7719 87.3185 52.6017 84.9803 50.2635C82.6421 47.9253 79.4719 46.6101 76.1652 46.6063Z" fill="black"/>
<path d="M58.1505 86.7947C59.6812 86.7947 60.9221 85.5538 60.9221 84.0231C60.9221 82.4924 59.6812 81.2515 58.1505 81.2515C56.6198 81.2515 55.3789 82.4924 55.3789 84.0231C55.3789 85.5538 56.6198 86.7947 58.1505 86.7947Z" fill="black"/>
<circle cx="59.4075" cy="59.0814" r="56.8768" stroke="black" stroke-width="4.40906"/>
</svg>
