<svg width="119" height="119" viewBox="0 0 119 119" fill="none" xmlns="http://www.w3.org/2000/svg">
<path d="M71.8556 90.3292C71.7472 91.4114 71.3495 92.4319 70.7143 93.2575C70.0792 94.0832 69.2362 94.6756 68.2953 94.9574L62.0587 96.8258C60.8221 97.1845 59.5087 96.9823 58.4048 96.2632C57.301 95.5441 56.496 94.3664 56.1653 92.9867C55.8346 91.6071 56.005 90.1372 56.6393 88.8973C57.2737 87.6575 58.3206 86.7481 59.5519 86.3674L65.7885 84.499C66.5898 84.2585 67.4328 84.2523 68.2368 84.481C69.0408 84.7097 69.7787 85.1656 70.3797 85.8049C75.0916 83.6859 79.0522 79.8983 81.6547 75.0223H80.0653C75.3105 75.0223 71.4564 70.7134 71.4564 65.3976V55.7728C71.4564 50.457 75.3105 46.1481 80.0653 46.1481H82.2175C82.5279 46.1481 82.8352 46.1662 83.1375 46.2023C79.8473 35.3625 70.3372 27.5003 59.0811 27.5003C47.825 27.5003 38.3149 35.3625 35.0247 46.2023C35.3271 46.1662 35.6344 46.1481 35.9448 46.1481H38.097C42.8518 46.1481 46.7059 50.457 46.7059 55.7728V65.3976C46.7059 70.7134 42.8518 75.0223 38.097 75.0223H35.9448C31.19 75.0223 27.3359 70.7134 27.3359 65.3976V55.7728C27.3359 55.5214 27.3445 55.2724 27.3612 55.0257C27.3443 54.8745 27.3358 54.7222 27.3359 54.5698C27.3359 35.6013 41.5761 20.2817 59.0811 20.2817C76.5862 20.2817 90.8263 35.6013 90.8263 54.5698C90.8263 54.7244 90.8177 54.8765 90.8011 55.0257C90.8177 55.2724 90.8263 55.5214 90.8263 55.7728V65.3976C90.8263 68.614 89.4156 71.4611 87.2477 73.2092C85.8541 77.0803 83.771 80.5942 81.125 83.5372C78.479 86.4803 75.3253 88.7911 71.8556 90.3292Z" fill="black"/>
<circle cx="59.0814" cy="59.0814" r="56.8768" stroke="black" stroke-width="4.40906"/>
</svg>
