<svg width="38" height="38" viewBox="0 0 38 38" fill="none" xmlns="http://www.w3.org/2000/svg">
<g filter="url(#filter0_d_2985_21913)">
<path fill-rule="evenodd" clip-rule="evenodd" d="M20.1569 6.06047L10.2516 11.3567C9.27788 11.8773 8.90883 13.0914 9.42745 14.0689L17.0779 28.4889C17.5963 29.4661 18.8061 29.8367 19.7798 29.3161L29.6851 24.0199C30.6591 23.4991 31.0278 22.2844 30.5093 21.3072L22.859 6.88729C22.3404 5.90977 21.1308 5.53971 20.1569 6.06047ZM19.7259 13.16C18.512 12.9621 17.2297 12.3145 16.9433 11.976C17.0513 12.4148 16.8504 13.886 16.3308 15.0476C16.1877 15.3682 15.9869 15.6982 15.7777 16.0422C15.1565 17.0636 14.4605 18.2078 14.9749 19.5918C16.0173 22.396 20.0538 21.4494 20.122 18.6546C20.597 19.7535 21.0769 21.8446 19.1254 23.7796C19.1195 23.7853 19.1139 23.7913 19.1084 23.7972C19.1052 23.8007 19.102 23.804 19.0989 23.8074C19.0891 23.8182 19.0791 23.8288 19.068 23.8396L19.2122 23.7596L25.0448 20.5159L25.1407 20.4627C25.1407 20.4627 25.118 20.4681 25.0858 20.4749C24.7075 20.5569 22.2505 20.9721 20.478 18.4567C22.7372 19.9575 25.7425 16.989 24.0952 14.5211C23.282 13.3031 21.984 13.2675 20.8251 13.2358C20.435 13.2251 20.0607 13.2148 19.7259 13.16ZM30.3423 25.2974L30.4453 25.2424C30.4835 25.2221 30.5183 25.198 30.5533 25.174C30.5673 25.1643 30.5815 25.1545 30.5958 25.1452L30.5995 25.1427C30.6148 25.1324 30.6306 25.1227 30.6466 25.113C30.6723 25.0971 30.6981 25.0813 30.7221 25.0634C30.7608 25.3374 30.7475 25.6069 30.6883 25.8626C30.551 26.2175 30.3213 26.5429 30.0001 26.7945L29.1285 27.4776L20.3451 34.3607C19.3961 35.1044 18.0256 34.9358 17.2839 33.984L6.20688 19.7636C5.46485 18.8113 5.63338 17.4369 6.58225 16.693L8.67637 15.0518L16.33 29.4649C17.0869 30.8901 18.859 31.4319 20.28 30.6728L20.2837 30.6709L24.616 28.3565L30.3383 25.2997L30.3423 25.2974Z" fill="black"/>
</g>
<defs>
<filter id="filter0_d_2985_21913" x="-0.360363" y="-0.0674497" width="38.9199" height="38.9192" filterUnits="userSpaceOnUse" color-interpolation-filters="sRGB">
<feFlood flood-opacity="0" result="BackgroundImageFix"/>
<feColorMatrix in="SourceAlpha" type="matrix" values="0 0 0 0 0 0 0 0 0 0 0 0 0 0 0 0 0 0 127 0" result="hardAlpha"/>
<feOffset dy="0.392096"/>
<feGaussianBlur stdDeviation="0.392096"/>
<feComposite in2="hardAlpha" operator="out"/>
<feColorMatrix type="matrix" values="0 0 0 0 0.0627451 0 0 0 0 0.0941176 0 0 0 0 0.156863 0 0 0 0.05 0"/>
<feBlend mode="normal" in2="BackgroundImageFix" result="effect1_dropShadow_2985_21913"/>
<feBlend mode="normal" in="SourceGraphic" in2="effect1_dropShadow_2985_21913" result="shape"/>
</filter>
</defs>
</svg>
