<svg width="38" height="38" viewBox="0 0 38 38" fill="none" xmlns="http://www.w3.org/2000/svg">
<g filter="url(#filter0_d_2985_21932)">
<path d="M27.8354 16.6349L36.3685 18.2681C36.5831 18.3225 36.7441 18.4858 36.7441 18.7036V19.5746C36.7441 19.7923 36.6368 19.9556 36.4758 20.119C35.4561 20.8267 32.0214 23.5486 31.0017 28.1214C30.9481 28.3936 30.6797 28.5569 30.4114 28.5024L25.957 27.6314C25.6887 27.577 25.474 27.2504 25.5813 26.9782C25.957 25.7261 27.1914 22.5142 29.8211 20.7178L26.2254 19.7923C26.0644 19.7379 26.0107 19.5746 26.0644 19.4657L27.6207 16.6893C27.6207 16.6349 27.728 16.5805 27.8354 16.6349Z" fill="black"/>
<path d="M6.74414 18.2136V20.8811C6.74414 21.2077 7.01248 21.371 7.33448 21.3166L10.5008 20.3911C10.5008 20.3911 8.67616 24.2563 9.69584 28.0669C9.74951 28.3391 10.0715 28.5024 10.3398 28.448L13.9356 27.6859C14.2039 27.6314 14.4186 27.3592 14.3649 27.087C14.1502 25.6172 13.7746 21.2621 16.2969 17.5059C16.4042 17.3426 16.4042 17.1793 16.4042 16.9615L16.0822 15.8728C15.9749 15.5461 15.6529 15.3828 15.3309 15.4373L7.06614 17.7781C6.85148 17.8325 6.74414 17.9959 6.74414 18.2136Z" fill="black"/>
<path d="M14.8881 9.82397H28.8953C29.271 9.82397 29.5393 10.0962 29.5393 10.4772V12.1648C29.5393 12.4914 29.432 12.8181 29.2173 13.0903C27.8756 14.6145 23.0992 20.4939 23.0456 27.9519C23.0456 28.2241 22.8309 28.4419 22.5626 28.4419H17.6788C17.4105 28.4419 17.1958 28.2241 17.1958 27.9519C17.1958 26.3732 17.5178 21.1471 22.9382 14.6145H14.7808C14.5125 14.6145 14.2441 14.3968 14.2441 14.0702V10.4772C14.2441 10.0962 14.5661 9.82397 14.8881 9.82397Z" fill="black"/>
</g>
<defs>
<filter id="filter0_d_2985_21932" x="-0.360363" y="-0.0681211" width="38.9199" height="38.9204" filterUnits="userSpaceOnUse" color-interpolation-filters="sRGB">
<feFlood flood-opacity="0" result="BackgroundImageFix"/>
<feColorMatrix in="SourceAlpha" type="matrix" values="0 0 0 0 0 0 0 0 0 0 0 0 0 0 0 0 0 0 127 0" result="hardAlpha"/>
<feOffset dy="0.392096"/>
<feGaussianBlur stdDeviation="0.392096"/>
<feComposite in2="hardAlpha" operator="out"/>
<feColorMatrix type="matrix" values="0 0 0 0 0.0627451 0 0 0 0 0.0941176 0 0 0 0 0.156863 0 0 0 0.05 0"/>
<feBlend mode="normal" in2="BackgroundImageFix" result="effect1_dropShadow_2985_21932"/>
<feBlend mode="normal" in="SourceGraphic" in2="effect1_dropShadow_2985_21932" result="shape"/>
</filter>
</defs>
</svg>
