<svg width="39" height="38" viewBox="0 0 39 38" fill="none" xmlns="http://www.w3.org/2000/svg">
<g filter="url(#filter0_d_2985_21951)">
<g filter="url(#filter1_d_2985_21951)">
<path d="M11.0596 16.3815C12.1419 15.8977 13.4616 15.4589 14.7764 15.1458L14.8271 15.1336C17.3733 14.5086 22.0018 14.28 23.2074 14.2666C23.067 13.629 22.9128 13.0709 22.8221 12.7581C22.6776 12.7842 22.5114 12.7969 22.3162 12.7969C21.5862 12.7969 20.704 12.6074 20.451 12.5493C19.8129 12.4482 18.5149 11.9048 17.472 11.4684C16.9808 11.2627 16.5168 11.0686 16.3639 11.028C15.6692 10.8178 14.9348 10.7115 14.1789 10.7115C12.6015 10.7115 11.302 11.1631 10.7062 11.4115C9.0935 13.2863 8.10632 15.7126 8.06641 18.3702C8.71953 17.6461 9.71951 16.9803 11.0596 16.3815Z" fill="black"/>
<path d="M23.8496 12.7262C23.9762 13.1433 24.106 13.6205 24.2657 14.2513C27.0945 14.2879 28.6121 14.7588 29.4054 15.1732C28.8753 13.5335 27.9697 12.0634 26.7879 10.8645C26.7142 11.2692 26.5452 11.6164 26.2774 11.8985C25.6429 12.5674 24.6179 12.7198 23.8496 12.7262Z" fill="black"/>
<path d="M16.5189 22.2934C17.068 21.6884 19.2606 19.3974 19.6684 18.9857C20.7528 17.8442 22.0988 17.1589 23.5629 17.0019C23.5151 16.0343 23.4202 15.437 23.3842 15.236C18.42 15.3168 14.4916 16.5091 14.4524 16.5213C10.7023 17.5255 8.97805 19.3886 8.24414 20.5213C8.64762 22.721 9.7076 24.6905 11.2163 26.2181C12.868 25.5384 16.0303 22.8114 16.5189 22.2934Z" fill="black"/>
<path d="M17.4046 10.0517C19.8843 11.3861 21.6001 11.7387 22.1609 11.7387C22.3411 11.7385 22.423 11.7145 22.4556 11.7009C22.452 11.6813 22.4431 11.6454 22.4221 11.5807C22.4116 11.5489 22.4021 11.5187 22.3947 11.4911C21.3134 8.60737 19.4857 7.77483 19.0145 7.60339C19.0091 7.60339 19.0038 7.60291 18.9985 7.60291C16.7588 7.60291 14.6773 8.27719 12.9434 9.43208C13.2936 9.38251 13.6567 9.35637 14.0312 9.35637C15.559 9.35687 16.8855 9.77228 17.4046 10.0517Z" fill="black"/>
<path d="M22.8042 24.4939C23.5809 22.0241 23.6604 19.1753 23.5776 18.6505C23.5358 18.386 23.4155 18.364 23.2854 18.364C23.0411 18.364 22.708 18.5069 22.4876 18.6014C22.3776 18.6488 22.2905 18.6859 22.2177 18.7067C20.5283 19.4244 18.4088 21.8123 17.2702 23.0949C17.0152 23.3821 16.8149 23.6075 16.6683 23.7602C14.6773 25.8786 13.3819 26.8954 12.5508 27.367C14.3587 28.6887 16.5863 29.4707 18.9975 29.4707C19.0012 29.4707 19.0046 29.4704 19.0082 29.4704C20.6129 28.7036 21.8597 27.0679 22.8042 24.4939Z" fill="black"/>
<path d="M24.4512 15.2526C24.5054 15.6472 24.537 16.2333 24.5649 16.8036L24.5736 16.978C26.8795 17.0236 27.7838 18.7077 28.0827 19.2645L28.1097 19.3144C28.7982 20.5838 28.7221 22.5617 28.5817 23.805C29.4432 22.2423 29.9345 20.4468 29.9345 18.5363C29.9345 17.9563 29.8885 17.3873 29.8014 16.8319C28.2657 15.4064 25.7485 15.2489 24.7194 15.2489C24.6177 15.2489 24.5276 15.2504 24.4512 15.2526Z" fill="black"/>
<path d="M27.0332 19.7394C26.4359 18.6944 25.9122 18.3733 25.2097 18.1713C25.13 18.1483 25.0574 18.1366 24.9935 18.1366C24.6582 18.1366 24.6347 18.5161 24.6337 18.5322C24.4652 23.2063 24.1159 24.4122 23.8609 25.2929L23.8166 25.4464C23.4591 26.7044 22.8703 27.9555 22.1504 29.0066C24.2523 28.3747 26.0881 27.1291 27.4477 25.4763C28.1466 22.7602 27.529 20.6071 27.0332 19.7394Z" fill="black"/>
<path d="M23.7827 11.7058C23.8048 11.7077 23.8264 11.7097 23.8474 11.7119C24.6271 11.6501 25.1955 11.4149 25.5241 11.0132C25.8794 10.5787 25.8295 10.0739 25.8288 10.0688C25.8262 10.0466 25.8269 10.0241 25.8298 10.0024C24.5437 8.97153 23.0202 8.22619 21.3535 7.85986C22.4258 8.99449 23.1387 10.8119 23.3076 11.2708C23.4863 11.6799 23.6235 11.6919 23.7827 11.7058Z" fill="black"/>
</g>
</g>
<defs>
<filter id="filter0_d_2985_21951" x="0.139637" y="-0.0681211" width="38.9199" height="38.9204" filterUnits="userSpaceOnUse" color-interpolation-filters="sRGB">
<feFlood flood-opacity="0" result="BackgroundImageFix"/>
<feColorMatrix in="SourceAlpha" type="matrix" values="0 0 0 0 0 0 0 0 0 0 0 0 0 0 0 0 0 0 127 0" result="hardAlpha"/>
<feOffset dy="0.392096"/>
<feGaussianBlur stdDeviation="0.392096"/>
<feComposite in2="hardAlpha" operator="out"/>
<feColorMatrix type="matrix" values="0 0 0 0 0.0627451 0 0 0 0 0.0941176 0 0 0 0 0.156863 0 0 0 0.05 0"/>
<feBlend mode="normal" in2="BackgroundImageFix" result="effect1_dropShadow_2985_21951"/>
<feBlend mode="normal" in="SourceGraphic" in2="effect1_dropShadow_2985_21951" result="shape"/>
</filter>
<filter id="filter1_d_2985_21951" x="3.80878" y="3.42221" width="31.5817" height="31.5812" filterUnits="userSpaceOnUse" color-interpolation-filters="sRGB">
<feFlood flood-opacity="0" result="BackgroundImageFix"/>
<feColorMatrix in="SourceAlpha" type="matrix" values="0 0 0 0 0 0 0 0 0 0 0 0 0 0 0 0 0 0 127 0" result="hardAlpha"/>
<feOffset dy="0.212799"/>
<feGaussianBlur stdDeviation="0.212799"/>
<feComposite in2="hardAlpha" operator="out"/>
<feColorMatrix type="matrix" values="0 0 0 0 0.0627451 0 0 0 0 0.0941176 0 0 0 0 0.156863 0 0 0 0.05 0"/>
<feBlend mode="normal" in2="BackgroundImageFix" result="effect1_dropShadow_2985_21951"/>
<feBlend mode="normal" in="SourceGraphic" in2="effect1_dropShadow_2985_21951" result="shape"/>
</filter>
</defs>
</svg>
