<svg width="39" height="38" viewBox="0 0 39 38" fill="none" xmlns="http://www.w3.org/2000/svg">
<g filter="url(#filter0_d_2985_21970)">
<path fill-rule="evenodd" clip-rule="evenodd" d="M7.94565 24.1081C7.31746 22.5916 6.99414 20.9661 6.99414 19.3246C6.99414 17.6831 7.31746 16.0576 7.94565 14.541C8.57383 13.0245 9.49457 11.6465 10.6553 10.4857C11.816 9.32502 13.194 8.40427 14.7106 7.77609C16.2272 7.14791 17.8526 6.82458 19.4941 6.82458C21.1357 6.82458 22.7611 7.14791 24.2777 7.77609C25.7943 8.40427 27.1722 9.32502 28.333 10.4857C29.4937 11.6465 30.4144 13.0245 31.0426 14.541C31.6708 16.0576 31.9941 17.6831 31.9941 19.3246C31.9941 20.9661 31.6708 22.5916 31.0426 24.1081C30.4144 25.6247 29.4937 27.0027 28.333 28.1634C27.1722 29.3242 25.7943 30.2449 24.2777 30.8731C22.7611 31.5013 21.1357 31.8246 19.4941 31.8246C17.8526 31.8246 16.2272 31.5013 14.7106 30.8731C13.194 30.2449 11.816 29.3242 10.6553 28.1634C9.49457 27.0027 8.57383 25.6247 7.94565 24.1081ZM22.6597 18.6811L22.7961 18.7181C24.3951 19.1528 25.3477 20.8103 24.9192 22.4323C24.4907 24.0544 22.8462 25.0173 21.2472 24.5827L20.0867 24.2672L19.4806 26.5617L18.0764 26.18L18.6825 23.8856L17.5567 23.5797L16.9503 25.875L15.544 25.4928L16.1504 23.1975L13.5731 22.4971L13.9832 20.9445L15.7774 21.4321L17.6533 14.3313L15.8591 13.8437L16.2692 12.2911L18.8466 12.9914L19.4329 10.7722L20.8392 11.1544L20.2529 13.3736L21.3787 13.6795L21.964 11.4641L23.3681 11.8457L22.7829 14.0611L23.7677 14.3288C24.0498 14.4046 24.3144 14.5362 24.5463 14.7161C24.7781 14.896 24.9726 15.1206 25.1185 15.3769C25.2645 15.6333 25.359 15.9165 25.3966 16.21C25.4343 16.5036 25.4144 16.8018 25.338 17.0876C25.0245 18.2745 23.8253 18.9768 22.6597 18.6811ZM20.9813 15.183L19.9673 14.9073L19.2461 17.6369L20.2602 17.9126L20.9329 18.0955C21.206 18.1696 21.4708 18.1567 21.7244 18.0666C22.1575 17.9302 22.5138 17.571 22.6391 17.0963C22.7647 16.6216 22.6332 16.1302 22.3254 15.7922C22.15 15.5855 21.9269 15.4399 21.654 15.3658L20.9813 15.183ZM20.497 22.3969C20.5263 22.4049 20.5458 22.4101 20.5777 22.4082C21.2875 22.5694 22.0124 22.1199 22.2033 21.3978C22.3941 20.6757 21.9878 19.9188 21.2937 19.6983C21.2672 19.6806 21.2478 19.6753 21.2189 19.6675L21.2182 19.6673L19.892 19.3068L18.878 19.0311L18.1568 21.7608L19.1709 22.0364L20.497 22.3969Z" fill="black"/>
</g>
<defs>
<filter id="filter0_d_2985_21970" x="0.139637" y="-0.0675107" width="38.9199" height="38.9191" filterUnits="userSpaceOnUse" color-interpolation-filters="sRGB">
<feFlood flood-opacity="0" result="BackgroundImageFix"/>
<feColorMatrix in="SourceAlpha" type="matrix" values="0 0 0 0 0 0 0 0 0 0 0 0 0 0 0 0 0 0 127 0" result="hardAlpha"/>
<feOffset dy="0.392096"/>
<feGaussianBlur stdDeviation="0.392096"/>
<feComposite in2="hardAlpha" operator="out"/>
<feColorMatrix type="matrix" values="0 0 0 0 0.0627451 0 0 0 0 0.0941176 0 0 0 0 0.156863 0 0 0 0.05 0"/>
<feBlend mode="normal" in2="BackgroundImageFix" result="effect1_dropShadow_2985_21970"/>
<feBlend mode="normal" in="SourceGraphic" in2="effect1_dropShadow_2985_21970" result="shape"/>
</filter>
</defs>
</svg>
