<svg width="36" height="36" viewBox="0 0 36 36" fill="none" xmlns="http://www.w3.org/2000/svg">
<g filter="url(#filter0_d_2985_21989)">
<g clip-path="url(#clip0_2985_21989)">
<g filter="url(#filter1_d_2985_21989)">
<g filter="url(#filter2_d_2985_21989)">
<path opacity="0.95" d="M12.4924 11.4435H11.136V9.49256C11.136 9.27875 11.0504 9.0737 10.8981 8.92252C10.7457 8.77134 10.5392 8.6864 10.3237 8.6864H10.0922C9.87683 8.6864 9.67023 8.77134 9.51791 8.92252C9.36558 9.0737 9.28001 9.27875 9.28001 9.49256V11.4435H7.92357C7.70815 11.4435 7.50155 11.5284 7.34923 11.6796C7.1969 11.8308 7.11133 12.0358 7.11133 12.2496V21.1174C7.11133 21.3312 7.1969 21.5362 7.34923 21.6874C7.50155 21.8386 7.70815 21.9235 7.92357 21.9235H9.28001V24.5073C9.28001 24.7211 9.36558 24.9261 9.51791 25.0773C9.67023 25.2285 9.87683 25.3134 10.0922 25.3134H10.3237C10.4304 25.3134 10.536 25.2926 10.6346 25.252C10.7331 25.2115 10.8227 25.1522 10.8981 25.0773C10.9735 25.0024 11.0333 24.9136 11.0741 24.8158C11.115 24.718 11.136 24.6131 11.136 24.5073V21.9114H12.4924C12.7078 21.9114 12.9144 21.8265 13.0668 21.6753C13.2191 21.5241 13.3047 21.3191 13.3047 21.1053V12.2375C13.3015 12.0258 13.2145 11.8239 13.0625 11.6753C12.9105 11.5267 12.7057 11.4434 12.4924 11.4435ZM29.854 15.1357H28.4976V12.8704C28.4976 12.6566 28.412 12.4515 28.2597 12.3003C28.1074 12.1491 27.9008 12.0642 27.6853 12.0642H27.4539C27.2384 12.0642 27.0318 12.1491 26.8795 12.3003C26.7272 12.4515 26.6416 12.6566 26.6416 12.8704V15.1357H25.2852C25.0698 15.1357 24.8632 15.2206 24.7108 15.3718C24.5585 15.523 24.4729 15.728 24.4729 15.9418V21.1053C24.4729 21.3191 24.5585 21.5241 24.7108 21.6753C24.8632 21.8265 25.0698 21.9114 25.2852 21.9114H26.6416V24.1808C26.6416 24.3946 26.7272 24.5996 26.8795 24.7508C27.0318 24.902 27.2384 24.9869 27.4539 24.9869H27.6853C27.9008 24.9869 28.1074 24.902 28.2597 24.7508C28.412 24.5996 28.4976 24.3946 28.4976 24.1808V21.9114H29.854C30.0694 21.9114 30.276 21.8265 30.4284 21.6753C30.5807 21.5241 30.6663 21.3191 30.6663 21.1053V15.9418C30.6663 15.728 30.5807 15.523 30.4284 15.3718C30.276 15.2206 30.0694 15.1357 29.854 15.1357Z" fill="black"/>
<path opacity="0.95" d="M21.1071 16.3828H19.7824V14.1118C19.7824 13.8978 19.6998 13.6926 19.5528 13.5413C19.4058 13.39 19.2064 13.3051 18.9986 13.3051H18.7791C18.5712 13.3051 18.3718 13.39 18.2248 13.5413C18.0778 13.6926 17.9952 13.8978 17.9952 14.1118V16.3828H16.6706C16.4627 16.3828 16.2633 16.4678 16.1163 16.6191C15.9693 16.7704 15.8867 16.9756 15.8867 17.1895V26.0355C15.8867 26.2495 15.9693 26.4546 16.1163 26.6059C16.2633 26.7572 16.4627 26.8422 16.6706 26.8422H17.9952V29.1253C17.9952 29.3393 18.0778 29.5445 18.2248 29.6958C18.3718 29.8471 18.5712 29.9321 18.7791 29.9321H18.9986C19.2064 29.9321 19.4058 29.8471 19.5528 29.6958C19.6998 29.5445 19.7824 29.3393 19.7824 29.1253V26.8422H21.1071C21.315 26.8422 21.5143 26.7572 21.6613 26.6059C21.8083 26.4546 21.8909 26.2495 21.8909 26.0355V17.1895C21.8909 16.9756 21.8083 16.7704 21.6613 16.6191C21.5143 16.4678 21.315 16.3828 21.1071 16.3828Z" fill="black"/>
</g>
</g>
</g>
</g>
<defs>
<filter id="filter0_d_2985_21989" x="-0.0634882" y="-0.271124" width="35.3262" height="35.3266" filterUnits="userSpaceOnUse" color-interpolation-filters="sRGB">
<feFlood flood-opacity="0" result="BackgroundImageFix"/>
<feColorMatrix in="SourceAlpha" type="matrix" values="0 0 0 0 0 0 0 0 0 0 0 0 0 0 0 0 0 0 127 0" result="hardAlpha"/>
<feOffset dy="0.392096"/>
<feGaussianBlur stdDeviation="0.392096"/>
<feComposite in2="hardAlpha" operator="out"/>
<feColorMatrix type="matrix" values="0 0 0 0 0.0627451 0 0 0 0 0.0941176 0 0 0 0 0.156863 0 0 0 0.05 0"/>
<feBlend mode="normal" in2="BackgroundImageFix" result="effect1_dropShadow_2985_21989"/>
<feBlend mode="normal" in="SourceGraphic" in2="effect1_dropShadow_2985_21989" result="shape"/>
</filter>
<filter id="filter1_d_2985_21989" x="3.37219" y="3.45355" width="31.4548" height="31.4544" filterUnits="userSpaceOnUse" color-interpolation-filters="sRGB">
<feFlood flood-opacity="0" result="BackgroundImageFix"/>
<feColorMatrix in="SourceAlpha" type="matrix" values="0 0 0 0 0 0 0 0 0 0 0 0 0 0 0 0 0 0 127 0" result="hardAlpha"/>
<feOffset dy="0.181094"/>
<feGaussianBlur stdDeviation="0.181094"/>
<feComposite in2="hardAlpha" operator="out"/>
<feColorMatrix type="matrix" values="0 0 0 0 0.0627451 0 0 0 0 0.0941176 0 0 0 0 0.156863 0 0 0 0.05 0"/>
<feBlend mode="normal" in2="BackgroundImageFix" result="effect1_dropShadow_2985_21989"/>
<feBlend mode="normal" in="SourceGraphic" in2="effect1_dropShadow_2985_21989" result="shape"/>
</filter>
<filter id="filter2_d_2985_21989" x="4.72149" y="4.89297" width="28.7562" height="28.7559" filterUnits="userSpaceOnUse" color-interpolation-filters="sRGB">
<feFlood flood-opacity="0" result="BackgroundImageFix"/>
<feColorMatrix in="SourceAlpha" type="matrix" values="0 0 0 0 0 0 0 0 0 0 0 0 0 0 0 0 0 0 127 0" result="hardAlpha"/>
<feOffset dy="0.271093"/>
<feGaussianBlur stdDeviation="0.271093"/>
<feComposite in2="hardAlpha" operator="out"/>
<feColorMatrix type="matrix" values="0 0 0 0 0.0627451 0 0 0 0 0.0941176 0 0 0 0 0.156863 0 0 0 0.05 0"/>
<feBlend mode="normal" in2="BackgroundImageFix" result="effect1_dropShadow_2985_21989"/>
<feBlend mode="normal" in="SourceGraphic" in2="effect1_dropShadow_2985_21989" result="shape"/>
</filter>
<clipPath id="clip0_2985_21989">
<rect x="0.720703" y="0.120972" width="33.7581" height="33.7581" rx="16.8791" fill="white"/>
</clipPath>
</defs>
</svg>
