<svg width="39" height="38" viewBox="0 0 39 38" fill="none" xmlns="http://www.w3.org/2000/svg">
<g filter="url(#filter0_d_2985_22626)">
<path d="M21.7227 19.9742H21.4727C21.34 19.9742 21.2129 20.0269 21.1191 20.1207C21.0253 20.2145 20.9727 20.3416 20.9727 20.4742C20.9727 20.6069 21.0253 20.734 21.1191 20.8278C21.2129 20.9216 21.34 20.9742 21.4727 20.9742H21.7227C21.8553 20.9742 21.9824 20.9216 22.0762 20.8278C22.17 20.734 22.2227 20.6069 22.2227 20.4742C22.2227 20.3416 22.17 20.2145 22.0762 20.1207C21.9824 20.0269 21.8553 19.9742 21.7227 19.9742Z" fill="black"/>
<path d="M23.9746 19.9742H23.7246C23.592 19.9742 23.4648 20.0269 23.3711 20.1207C23.2773 20.2145 23.2246 20.3416 23.2246 20.4742C23.2246 20.6069 23.2773 20.734 23.3711 20.8278C23.4648 20.9216 23.592 20.9742 23.7246 20.9742H23.9746C24.1072 20.9742 24.2344 20.9216 24.3282 20.8278C24.4219 20.734 24.4746 20.6069 24.4746 20.4742C24.4746 20.3416 24.4219 20.2145 24.3282 20.1207C24.2344 20.0269 24.1072 19.9742 23.9746 19.9742Z" fill="black"/>
<path d="M17.5977 19.9739H17.0977V18.3867C17.4313 18.2688 17.7124 18.0367 17.8915 17.7315C18.0705 17.4263 18.1359 17.0676 18.0761 16.7189C18.0162 16.3701 17.835 16.0538 17.5645 15.8257C17.294 15.5976 16.9515 15.4725 16.5977 15.4725C16.2438 15.4725 15.9014 15.5976 15.6308 15.8257C15.3603 16.0538 15.1791 16.3701 15.1193 16.7189C15.0594 17.0676 15.1248 17.4263 15.3038 17.7315C15.4829 18.0367 15.7641 18.2688 16.0977 18.3867V19.9739H15.5977C15.4651 19.9739 15.3379 20.0266 15.2441 20.1203C15.1503 20.2141 15.0977 20.3413 15.0977 20.4739C15.0977 20.6065 15.1503 20.7337 15.2441 20.8274C15.3379 20.9212 15.4651 20.9739 15.5977 20.9739H17.5977C17.7303 20.9739 17.8574 20.9212 17.9512 20.8274C18.045 20.7337 18.0977 20.6065 18.0977 20.4739C18.0977 20.3413 18.045 20.2141 17.9512 20.1203C17.8574 20.0266 17.7303 19.9739 17.5977 19.9739Z" fill="black"/>
<path d="M27.0977 3.47388H11.5977C11.4652 3.47426 11.3382 3.52707 11.2445 3.62075C11.1508 3.71444 11.098 3.84139 11.0977 3.97388V6.59888C11.0977 6.68974 11.1228 6.77883 11.1702 6.85638L12.3777 8.86137V18.4014L11.4427 21.5789C11.3543 21.7992 11.32 22.0375 11.3427 22.2739L12.5152 34.1164C12.5491 34.4883 12.7212 34.834 12.9975 35.0852C13.2738 35.3365 13.6342 35.4752 14.0077 35.4739H24.6877C25.0607 35.4753 25.4208 35.337 25.6971 35.0862C25.9733 34.8354 26.1456 34.4903 26.1802 34.1189L27.3552 22.2664C27.3751 22.0323 27.34 21.7969 27.2527 21.5789L26.3177 18.4014V8.86137L27.5252 6.85638C27.5725 6.77883 27.5976 6.68974 27.5977 6.59888V3.97388C27.5973 3.84139 27.5445 3.71444 27.4508 3.62075C27.3571 3.52707 27.2301 3.47426 27.0977 3.47388ZM26.2877 6.97138L25.6852 7.97388H13.0102L12.4077 6.97138H26.2877ZM25.1852 34.0214C25.1738 34.1453 25.1165 34.2606 25.0244 34.3443C24.9323 34.4281 24.8121 34.4743 24.6877 34.4739H14.0077C13.8828 34.4742 13.7624 34.4276 13.6702 34.3433C13.5781 34.2591 13.5209 34.1433 13.5102 34.0189L13.4552 33.4739H25.2402L25.1852 34.0214ZM21.3477 27.2239H17.3477C17.215 27.2239 17.0879 27.1712 16.9941 27.0774C16.9003 26.9837 16.8477 26.8565 16.8477 26.7239C16.8477 26.5913 16.9003 26.4641 16.9941 26.3703C17.0879 26.2765 17.215 26.2239 17.3477 26.2239H21.3477C21.4803 26.2239 21.6074 26.2765 21.7012 26.3703C21.795 26.4641 21.8477 26.5913 21.8477 26.7239C21.8477 26.8565 21.795 26.9837 21.7012 27.0774C21.6074 27.1712 21.4803 27.2239 21.3477 27.2239ZM21.5977 28.7239C21.5973 28.8564 21.5445 28.9833 21.4508 29.077C21.3571 29.1707 21.2301 29.2235 21.0977 29.2239H20.5977C20.465 29.2239 20.3379 29.1712 20.2441 29.0774C20.1503 28.9837 20.0977 28.8565 20.0977 28.7239C20.0977 28.5913 20.1503 28.4641 20.2441 28.3703C20.3379 28.2765 20.465 28.2239 20.5977 28.2239H21.0977C21.2301 28.2243 21.3571 28.2771 21.4508 28.3707C21.5445 28.4644 21.5973 28.5914 21.5977 28.7239ZM18.5977 28.7239C18.5973 28.8564 18.5445 28.9833 18.4508 29.077C18.3571 29.1707 18.2301 29.2235 18.0977 29.2239H17.5977C17.465 29.2239 17.3379 29.1712 17.2441 29.0774C17.1503 28.9837 17.0977 28.8565 17.0977 28.7239C17.0977 28.5913 17.1503 28.4641 17.2441 28.3703C17.3379 28.2765 17.465 28.2239 17.5977 28.2239H18.0977C18.2301 28.2243 18.3571 28.2771 18.4508 28.3707C18.5445 28.4644 18.5973 28.5914 18.5977 28.7239ZM26.3302 21.9739H12.3652C12.3702 21.9639 13.2527 18.9739 13.2527 18.9739H15.0977V18.9714C14.8095 18.7555 14.5714 18.4799 14.3997 18.1633C14.228 17.8468 14.1268 17.4969 14.1031 17.1376C14.0793 16.7783 14.1336 16.4181 14.2621 16.0818C14.3906 15.7454 14.5904 15.4408 14.8477 15.1889V10.9739C14.848 10.8414 14.9008 10.7144 14.9945 10.6207C15.0882 10.5271 15.2152 10.4743 15.3477 10.4739H23.3477C23.4801 10.4743 23.6071 10.5271 23.7008 10.6207C23.7945 10.7144 23.8473 10.8414 23.8477 10.9739V15.9739C23.8473 16.1064 23.7945 16.2333 23.7008 16.327C23.6071 16.4207 23.4801 16.4735 23.3477 16.4739H19.0477C19.1418 16.9374 19.1025 17.4181 18.9343 17.8602C18.7662 18.3023 18.476 18.6876 18.0977 18.9714V18.9739H25.4427C25.4427 18.9739 26.3252 21.9639 26.3302 21.9739Z" fill="black"/>
</g>
<defs>
<filter id="filter0_d_2985_22626" x="0.139637" y="-0.0675107" width="38.9199" height="38.9191" filterUnits="userSpaceOnUse" color-interpolation-filters="sRGB">
<feFlood flood-opacity="0" result="BackgroundImageFix"/>
<feColorMatrix in="SourceAlpha" type="matrix" values="0 0 0 0 0 0 0 0 0 0 0 0 0 0 0 0 0 0 127 0" result="hardAlpha"/>
<feOffset dy="0.392096"/>
<feGaussianBlur stdDeviation="0.392096"/>
<feComposite in2="hardAlpha" operator="out"/>
<feColorMatrix type="matrix" values="0 0 0 0 0.0627451 0 0 0 0 0.0941176 0 0 0 0 0.156863 0 0 0 0.05 0"/>
<feBlend mode="normal" in2="BackgroundImageFix" result="effect1_dropShadow_2985_22626"/>
<feBlend mode="normal" in="SourceGraphic" in2="effect1_dropShadow_2985_22626" result="shape"/>
</filter>
</defs>
</svg>
