<svg width="45" height="44" viewBox="0 0 45 44" fill="none" xmlns="http://www.w3.org/2000/svg">
<g filter="url(#filter0_d_2985_22047)">
<g filter="url(#filter1_d_2985_22047)">
<path fill-rule="evenodd" clip-rule="evenodd" d="M22.4961 33.4734C28.8473 33.4734 33.9961 28.3246 33.9961 21.9734C33.9961 15.6221 28.8473 10.4734 22.4961 10.4734C16.1448 10.4734 10.9961 15.6221 10.9961 21.9734C10.9961 28.3246 16.1448 33.4734 22.4961 33.4734ZM28.731 20.1719C28.731 23.5389 26.0016 26.2683 22.6347 26.2683C19.2678 26.2683 16.5383 23.5389 16.5383 20.1719C16.5383 16.805 19.2678 14.0756 22.6347 14.0756C26.0016 14.0756 28.731 16.805 28.731 20.1719ZM23.4557 24.8161C22.8605 24.9318 22.3124 24.938 21.8112 24.8349C21.3121 24.7288 20.8983 24.5326 20.57 24.2461C20.2417 23.9598 20.0359 23.6028 19.9528 23.1753C19.8887 22.8455 19.9046 22.5283 20.0004 22.2236C20.0983 21.9159 20.2596 21.6453 20.4842 21.4118C20.7083 21.1758 20.9764 21.0007 21.2884 20.8866L21.2778 20.8325C20.8389 20.8296 20.4565 20.6914 20.1306 20.4179C19.8043 20.1419 19.5991 19.7875 19.5149 19.3547C19.4353 18.9451 19.4843 18.5574 19.6617 18.1914C19.8387 17.8228 20.1181 17.5065 20.4998 17.2425C20.8836 16.9755 21.3422 16.7901 21.8754 16.6864C22.4086 16.5828 22.9019 16.5832 23.3553 16.6875C23.8111 16.7914 24.1902 16.981 24.4924 17.2564C24.794 17.5293 24.9856 17.8689 25.0674 18.2754C25.1494 18.7113 25.0893 19.1172 24.8871 19.4934C24.6849 19.8695 24.3846 20.1404 23.9864 20.306L23.997 20.3601C24.3238 20.3501 24.6341 20.4127 24.9277 20.5481C25.2234 20.6804 25.4742 20.8709 25.6803 21.1196C25.8885 21.3652 26.0259 21.6526 26.0925 21.9818C26.1731 22.4099 26.1148 22.8182 25.9176 23.2068C25.7205 23.5952 25.409 23.9324 24.9834 24.2183C24.5599 24.5012 24.0507 24.7004 23.4557 24.8161ZM23.2168 23.5873C23.4821 23.5358 23.7046 23.4431 23.8845 23.3092C24.0638 23.1727 24.1923 23.0087 24.2701 22.8173C24.3498 22.6226 24.3679 22.4133 24.3244 22.1891C24.2799 21.9599 24.1826 21.7689 24.0326 21.6163C23.8821 21.4611 23.698 21.3525 23.48 21.2906C23.2618 21.2262 23.0237 21.2189 22.7661 21.269C22.5112 21.3186 22.2932 21.4144 22.1123 21.5565C21.9309 21.696 21.7995 21.8659 21.7181 22.0662C21.6388 22.2634 21.6215 22.4766 21.666 22.7058C21.7096 22.93 21.8035 23.1175 21.9478 23.2686C22.0917 23.4171 22.2735 23.5207 22.4935 23.5796C22.713 23.6358 22.954 23.6384 23.2168 23.5873ZM22.5296 20.0519C22.751 20.0088 22.9394 19.9254 23.0944 19.8017C23.2495 19.678 23.3604 19.5268 23.4272 19.3481C23.4942 19.1694 23.5073 18.9757 23.4667 18.767C23.4267 18.5609 23.3427 18.3901 23.2147 18.2546C23.0863 18.1165 22.9286 18.0202 22.7415 17.9656C22.5541 17.9085 22.3469 17.902 22.1202 17.9461C21.8961 17.9896 21.7065 18.0733 21.5515 18.197C21.3959 18.3181 21.2845 18.4668 21.2171 18.6429C21.1518 18.816 21.1392 19.0056 21.1793 19.2116C21.2199 19.4203 21.3046 19.595 21.4335 19.7356C21.5625 19.8763 21.722 19.975 21.9121 20.0316C22.1022 20.0882 22.308 20.095 22.5296 20.0519Z" fill="black"/>
</g>
</g>
<defs>
<filter id="filter0_d_2985_22047" x="-0.17091" y="-0.379156" width="45.543" height="45.5425" filterUnits="userSpaceOnUse" color-interpolation-filters="sRGB">
<feFlood flood-opacity="0" result="BackgroundImageFix"/>
<feColorMatrix in="SourceAlpha" type="matrix" values="0 0 0 0 0 0 0 0 0 0 0 0 0 0 0 0 0 0 127 0" result="hardAlpha"/>
<feOffset dy="0.392096"/>
<feGaussianBlur stdDeviation="0.392096"/>
<feComposite in2="hardAlpha" operator="out"/>
<feColorMatrix type="matrix" values="0 0 0 0 0.0627451 0 0 0 0 0.0941176 0 0 0 0 0.156863 0 0 0 0.05 0"/>
<feBlend mode="normal" in2="BackgroundImageFix" result="effect1_dropShadow_2985_22047"/>
<feBlend mode="normal" in="SourceGraphic" in2="effect1_dropShadow_2985_22047" result="shape"/>
</filter>
<filter id="filter1_d_2985_22047" x="3.13964" y="2.93188" width="38.9199" height="38.9204" filterUnits="userSpaceOnUse" color-interpolation-filters="sRGB">
<feFlood flood-opacity="0" result="BackgroundImageFix"/>
<feColorMatrix in="SourceAlpha" type="matrix" values="0 0 0 0 0 0 0 0 0 0 0 0 0 0 0 0 0 0 127 0" result="hardAlpha"/>
<feOffset dy="0.392096"/>
<feGaussianBlur stdDeviation="0.392096"/>
<feComposite in2="hardAlpha" operator="out"/>
<feColorMatrix type="matrix" values="0 0 0 0 0.0627451 0 0 0 0 0.0941176 0 0 0 0 0.156863 0 0 0 0.05 0"/>
<feBlend mode="normal" in2="BackgroundImageFix" result="effect1_dropShadow_2985_22047"/>
<feBlend mode="normal" in="SourceGraphic" in2="effect1_dropShadow_2985_22047" result="shape"/>
</filter>
</defs>
</svg>
