<svg width="44" height="44" viewBox="0 0 44 44" fill="none" xmlns="http://www.w3.org/2000/svg">
<g filter="url(#filter0_d_2985_22066)">
<g clip-path="url(#clip0_2985_22066)">
<path d="M26.9503 18.4041L18.4052 14.3245C17.8313 14.0505 17.0749 13.9135 16.3184 13.9135C15.5618 13.9135 14.8054 14.0505 14.2316 14.3245L5.68642 18.4041C4.53864 18.9522 3.59961 20.4411 3.59961 21.7129V31.5398C3.59961 32.8116 4.50434 34.3663 5.61034 34.9945L14.3076 39.9358C14.8606 40.2499 15.5895 40.407 16.3184 40.407C17.0472 40.407 17.7761 40.2499 18.3291 39.9358L27.0264 34.9945C28.1324 34.3663 29.0371 32.8116 29.0371 31.5398V21.7129C29.0371 20.4411 28.0981 18.9522 26.9503 18.4041ZM16.3184 18.7239C17.4358 18.7239 18.3418 19.2416 18.3418 19.8805C18.3418 20.5187 17.4358 21.0364 16.3184 21.0364C15.2009 21.0364 14.2949 20.5187 14.2949 19.8805C14.2949 19.2416 15.2009 18.7239 16.3184 18.7239ZM8.16336 33.4717C8.03999 33.5331 7.90832 33.5625 7.77309 33.5625C7.18213 33.5625 6.52015 33.0046 6.15798 32.1361C5.71267 31.0688 5.88896 29.9362 6.5512 29.6064C6.67471 29.5449 6.80641 29.5156 6.94175 29.5156C7.53285 29.5156 8.19484 30.0734 8.55686 30.9419C9.00216 32.0092 8.82589 33.1417 8.16336 33.4717ZM8.16336 27.1124C8.03999 27.1738 7.90832 27.2031 7.77309 27.2031C7.18213 27.2031 6.52015 26.6452 6.15798 25.7767C5.71267 24.7094 5.88896 23.5769 6.5512 23.247C6.67471 23.1855 6.80641 23.1563 6.94175 23.1563C7.53285 23.1563 8.19484 23.7141 8.55686 24.5825C9.00216 25.6499 8.82589 26.7824 8.16336 27.1124ZM13.9446 36.6514C13.8212 36.7128 13.6896 36.7422 13.5543 36.7422C12.9634 36.7422 12.3014 36.1842 11.9392 35.3158C11.4939 34.2484 11.6702 33.1159 12.3324 32.7861C12.456 32.7245 12.5877 32.6953 12.723 32.6953C13.3141 32.6953 13.9761 33.2531 14.3381 34.1216C14.7834 35.1889 14.6071 36.3214 13.9446 36.6514ZM13.9446 30.2921C13.8212 30.3534 13.6896 30.3828 13.5543 30.3828C12.9634 30.3828 12.3014 29.8249 11.9392 28.9564C11.4939 27.8891 11.6702 26.7566 12.3324 26.4267C12.456 26.3652 12.5877 26.3359 12.723 26.3359C13.3141 26.3359 13.9761 26.8937 14.3381 27.7622C14.7834 28.8295 14.6071 29.9621 13.9446 30.2921ZM20.6975 35.3158C20.3353 36.1842 19.6733 36.7422 19.0824 36.7422C18.9472 36.7422 18.8155 36.7128 18.6921 36.6514C18.0296 36.3214 17.8533 35.1889 18.2986 34.1216C18.6606 33.2531 19.3226 32.6953 19.9137 32.6953C20.0491 32.6953 20.1808 32.7245 20.3043 32.7861C20.9665 33.1159 21.1428 34.2484 20.6975 35.3158ZM20.6975 28.9564C20.3353 29.8249 19.6733 30.3828 19.0824 30.3828C18.9472 30.3828 18.8155 30.3534 18.6921 30.2921C18.0296 29.9621 17.8533 28.8295 18.2986 27.7622C18.6606 26.8937 19.3226 26.3359 19.9137 26.3359C20.0491 26.3359 20.1808 26.3652 20.3043 26.4267C20.9665 26.7566 21.1428 27.8891 20.6975 28.9564ZM26.4787 32.1361C26.1166 33.0046 25.4546 33.5625 24.8636 33.5625C24.7284 33.5625 24.5967 33.5331 24.4734 33.4717C23.8108 33.1417 23.6346 32.0092 24.0799 30.9419C24.4419 30.0734 25.1039 29.5156 25.695 29.5156C25.8303 29.5156 25.962 29.5449 26.0855 29.6064C26.7478 29.9362 26.924 31.0688 26.4787 32.1361ZM26.4787 25.7767C26.1166 26.6452 25.4546 27.2031 24.8636 27.2031C24.7284 27.2031 24.5967 27.1738 24.4734 27.1124C23.8108 26.7824 23.6346 25.6499 24.0799 24.5825C24.4419 23.7141 25.1039 23.1563 25.695 23.1563C25.8303 23.1563 25.962 23.1855 26.0855 23.247C26.7478 23.5769 26.924 24.7094 26.4787 25.7767ZM27.3293 20.9293L16.8965 26.677V38.7656C16.8965 39.0849 16.6376 39.3438 16.3184 39.3438C15.9991 39.3438 15.7402 39.0849 15.7402 38.7656V26.7208L5.22375 20.8442C4.94471 20.6888 4.8445 20.3368 4.99976 20.0579C5.15516 19.7791 5.50703 19.679 5.78607 19.8339L16.2788 25.6973L26.7701 19.9173C27.05 19.7632 27.4014 19.8644 27.5557 20.1437C27.7101 20.4231 27.6087 20.7749 27.3293 20.9293Z" fill="black"/>
<path d="M37.2296 9.82207C36.8056 8.62304 35.4775 7.29503 34.2784 6.87089L25.2938 3.69291C24.9641 3.57633 24.5955 3.52112 24.2153 3.52112C23.2126 3.52112 22.1306 3.90491 21.4785 4.55697L14.4857 11.5498C14.0294 12.0061 13.687 12.679 13.5039 13.391L13.7344 13.2809C14.4418 12.9432 15.3598 12.7572 16.3193 12.7572C16.4053 12.7572 16.4904 12.7604 16.5756 12.7634C16.9149 12.3947 17.3084 12.1718 17.6722 12.1718C17.7688 12.1718 17.8634 12.1872 17.954 12.2194C18.3038 12.3436 18.5261 12.6931 18.6017 13.1516C18.706 13.192 18.8075 13.2348 18.9043 13.2811L22.5529 15.0229C22.9457 14.3446 23.5185 13.9062 24.0315 13.9062C24.1283 13.9061 24.2228 13.9216 24.3135 13.9538C24.9395 14.1758 25.1601 15.1172 24.8534 16.1212L26.3587 16.8399L26.6558 16.5399L23.5168 5.32438C23.4301 5.0171 23.609 4.69772 23.9162 4.61106C24.2245 4.52466 24.543 4.70321 24.6295 5.01048L27.7999 16.3374L39.0518 19.5465C39.3588 19.6341 39.5366 19.9541 39.4488 20.2611C39.3762 20.515 39.1448 20.6805 38.8933 20.6805C38.8461 20.6805 29.6828 18.0749 27.7582 17.5274C28.4049 17.9131 28.9776 18.5021 29.4049 19.1827C29.7679 19.2836 30.0406 19.4877 30.1466 19.787C30.2389 20.047 30.1926 20.3387 30.0399 20.6235C30.1383 20.9873 30.1943 21.3545 30.1943 21.7129V30.6961C31.0876 30.5673 31.9851 30.1804 32.5507 29.6148L39.5435 22.622C40.4429 21.7226 40.8316 20.0057 40.4076 18.8067L37.2296 9.82207ZM23.0358 10.2317C22.6688 11.0417 21.9508 11.5937 21.3256 11.5937C21.2288 11.5937 21.1344 11.5804 21.0437 11.5529C20.3674 11.3473 20.1633 10.4221 20.5873 9.48685C20.9542 8.67698 21.6722 8.12496 22.2972 8.12496C22.394 8.12496 22.4885 8.13823 22.5792 8.16575C23.2555 8.37138 23.4599 9.29659 23.0358 10.2317ZM33.1449 14.2558C32.9901 14.4107 32.7728 14.4843 32.5218 14.4843C32.003 14.4843 31.3394 14.1704 30.7792 13.6102C29.9477 12.7787 29.6589 11.7193 30.1337 11.2445C30.289 11.0893 30.5064 11.0156 30.7579 11.0156C31.2765 11.0156 31.9398 11.3295 32.4999 11.8895C33.3315 12.721 33.6204 13.7803 33.1449 14.2558ZM34.9648 23.5133C34.5798 23.6629 34.1961 23.7343 33.8503 23.7343C33.2165 23.7343 32.7097 23.4944 32.5545 23.057C32.3146 22.3805 33.0045 21.4886 34.0958 21.0647C34.4808 20.9151 34.8645 20.8437 35.2102 20.8437C35.8441 20.8437 36.351 21.0838 36.5061 21.5215C36.7459 22.1976 36.0561 23.0894 34.9648 23.5133Z" fill="black"/>
</g>
</g>
<defs>
<filter id="filter0_d_2985_22066" x="-0.495129" y="-0.203131" width="45.1895" height="45.1905" filterUnits="userSpaceOnUse" color-interpolation-filters="sRGB">
<feFlood flood-opacity="0" result="BackgroundImageFix"/>
<feColorMatrix in="SourceAlpha" type="matrix" values="0 0 0 0 0 0 0 0 0 0 0 0 0 0 0 0 0 0 127 0" result="hardAlpha"/>
<feOffset dy="0.392096"/>
<feGaussianBlur stdDeviation="0.392096"/>
<feComposite in2="hardAlpha" operator="out"/>
<feColorMatrix type="matrix" values="0 0 0 0 0.0627451 0 0 0 0 0.0941176 0 0 0 0 0.156863 0 0 0 0.05 0"/>
<feBlend mode="normal" in2="BackgroundImageFix" result="effect1_dropShadow_2985_22066"/>
<feBlend mode="normal" in="SourceGraphic" in2="effect1_dropShadow_2985_22066" result="shape"/>
</filter>
<clipPath id="clip0_2985_22066">
<rect width="37" height="37" fill="white" transform="translate(3.59961 3.5)"/>
</clipPath>
</defs>
</svg>
