<svg width="119" height="119" viewBox="0 0 119 119" fill="none" xmlns="http://www.w3.org/2000/svg">
<path fill-rule="evenodd" clip-rule="evenodd" d="M58.804 28.0417C51.6192 28.0417 44.9535 29.9662 39.4072 33.2663C37.4039 34.4583 34.6928 33.981 33.3518 32.2003C32.0108 30.4196 32.5478 28.0097 34.5511 26.8177C41.4894 22.6894 49.837 20.2817 58.804 20.2817C82.9108 20.2817 102.454 37.6529 102.454 59.0814C102.454 80.5097 82.9108 97.8811 58.804 97.8811C49.837 97.8811 41.4894 95.4736 34.5511 91.3453C32.5478 90.153 32.0108 87.7432 33.3518 85.9626C34.6928 84.1817 37.4039 83.7045 39.4072 84.8964C44.9535 88.1967 51.6192 90.1212 58.804 90.1212C78.0897 90.1212 93.7237 76.2243 93.7237 59.0814C93.7237 41.9386 78.0897 28.0417 58.804 28.0417ZM19.5193 43.5616C19.5193 41.4187 21.4735 39.6816 23.8842 39.6816H32.6142C35.0248 39.6816 36.9791 41.4187 36.9791 43.5616C36.9791 45.7044 35.0248 47.4415 32.6142 47.4415H23.8842C21.4735 47.4415 19.5193 45.7044 19.5193 43.5616ZM63.1689 39.6816C65.5797 39.6816 67.5339 41.4187 67.5339 43.5616V45.0587C69.4453 45.1226 71.3995 45.2735 72.9495 45.6153C75.2896 46.1311 76.7156 48.2354 76.1355 50.3152C75.5549 52.3951 73.1878 53.6631 70.8482 53.147C69.3122 52.8083 66.3728 52.761 63.1982 52.78C62.9227 52.7815 62.7254 52.7804 62.5609 52.7769C62.4762 52.7749 62.4081 52.773 62.3527 52.7707L62.2649 52.7676L62.2488 52.7672H62.1589C62.0519 52.7679 61.8716 52.7707 61.55 52.7784C60.2474 52.8157 59.4425 53.076 59.0881 53.2929C58.9515 53.3767 58.9166 53.4306 58.9017 53.4559C58.8869 53.4807 58.8048 53.6243 58.804 53.9952C58.8035 54.1643 58.8267 54.2586 58.8389 54.2982C58.8498 54.3335 58.8585 54.3455 58.8607 54.3483C58.8633 54.3521 58.8799 54.3746 58.9297 54.4134C58.982 54.4546 59.0759 54.517 59.2295 54.5904C59.948 54.9334 61.2946 55.2011 63.1689 55.2011C65.5317 55.2011 68.578 55.4195 71.1677 56.6041C72.5374 57.2307 73.8705 58.1685 74.8426 59.5408C75.8212 60.9229 76.2638 62.5059 76.2638 64.1735C76.2638 67.3326 74.355 69.6035 71.905 70.9681C70.5706 71.7111 69.059 72.2074 67.5339 72.541V74.6013C67.5339 76.7442 65.5797 78.4813 63.1689 78.4813C60.7581 78.4813 58.804 76.7442 58.804 74.6013V73.0144C57.4526 72.9647 55.9301 72.8569 53.8977 72.6311C51.5053 72.3653 49.8087 70.4261 50.1076 68.2999C50.4066 66.1736 52.5882 64.6651 54.9802 64.9309C58.3819 65.3088 59.91 65.3018 62.4299 65.2898C62.8289 65.2882 63.2527 65.2863 63.7128 65.2855C65.512 65.0795 66.6674 64.728 67.2698 64.3923C67.416 64.3109 67.495 64.2492 67.5326 64.2154C67.5334 64.2045 67.5339 64.191 67.5339 64.1735C67.5339 63.9489 67.5046 63.8154 67.4854 63.7502C67.4754 63.7176 67.4667 63.6978 67.4623 63.6885C67.4575 63.6788 67.4549 63.6753 67.4549 63.6749L67.4501 63.6699C67.4466 63.6664 67.4379 63.6575 67.4208 63.6443C67.3863 63.6175 67.3117 63.5671 67.1738 63.5042C66.4898 63.1915 65.1711 62.961 63.1689 62.961C60.6783 62.961 57.656 62.6475 55.099 61.4269C52.2382 60.0607 50.0671 57.5651 50.074 53.982C50.0801 50.8682 51.6467 48.4267 54.1356 46.9024C55.594 46.0096 57.2299 45.5107 58.804 45.2531V43.5616C58.804 41.4187 60.7581 39.6816 63.1689 39.6816ZM15.1543 59.0814C15.1543 56.9385 17.1086 55.2015 19.5193 55.2015H32.6142C35.0248 55.2015 36.9791 56.9385 36.9791 59.0814C36.9791 61.2243 35.0248 62.9614 32.6142 62.9614H19.5193C17.1086 62.9614 15.1543 61.2243 15.1543 59.0814ZM19.5193 74.6013C19.5193 72.4584 21.4735 70.7213 23.8842 70.7213H32.6142C35.0248 70.7213 36.9791 72.4584 36.9791 74.6013C36.9791 76.7442 35.0248 78.4813 32.6142 78.4813H23.8842C21.4735 78.4813 19.5193 76.7442 19.5193 74.6013Z" fill="black"/>
<circle cx="59.2444" cy="59.0814" r="56.8768" stroke="black" stroke-width="4.40906"/>
</svg>
