<svg width="71" height="71" viewBox="0 0 71 71" fill="none" xmlns="http://www.w3.org/2000/svg">
<path d="M27.6828 20.279L22.6016 25.4185H49.2558L44.1737 20.279H38.3291L40.121 17.5912C40.424 17.6681 40.7411 17.7092 41.0677 17.7092C43.1932 17.7092 44.9223 15.98 44.9223 13.8546C44.9223 11.7292 43.1932 10 41.0677 10C38.9423 10 37.2131 11.7292 37.2131 13.8546C37.2131 14.7203 37.5001 15.5201 37.9838 16.1643L35.9282 19.2475L33.8727 16.1643C34.3564 15.5201 34.6434 14.7203 34.6434 13.8546C34.6434 11.7292 32.9142 10 30.7888 10C28.6633 10 26.9341 11.7292 26.9341 13.8546C26.9341 15.98 28.6633 17.7092 30.7888 17.7092C31.1154 17.7092 31.4325 17.6681 31.7355 17.5913L33.5274 20.279H27.6828Z" fill="black"/>
<path d="M51.7966 27.9883H20.0612C16.1298 32.7229 14 36.0844 14 42.2932C14 48.6696 19.1875 53.857 25.5638 53.857H46.2931C52.6695 53.857 57.8569 48.6696 57.8569 42.2932C57.8569 36.0938 55.7354 32.7322 51.7966 27.9883ZM35.9285 38.4386C38.0536 38.4386 39.7831 40.168 39.7831 42.2932C39.7831 43.9678 38.7089 45.3974 37.2133 45.9268V48.7175H34.6436V45.9268C33.148 45.3974 32.0739 43.9678 32.0739 42.2932H34.6436C34.6436 43.0016 35.2201 43.5781 35.9285 43.5781C36.6369 43.5781 37.2133 43.0016 37.2133 42.2932C37.2133 41.5848 36.6369 41.0083 35.9285 41.0083C33.8033 41.0083 32.0739 39.2789 32.0739 37.1537C32.0739 35.4791 33.148 34.0494 34.6436 33.5201V30.7293H37.2133V33.5201C38.7089 34.0494 39.7831 35.4791 39.7831 37.1537H37.2133C37.2133 36.4453 36.6369 35.8688 35.9285 35.8688C35.2201 35.8688 34.6436 36.4453 34.6436 37.1537C34.6436 37.8621 35.2201 38.4386 35.9285 38.4386Z" fill="black"/>
<circle cx="35.5" cy="35.5" r="33.8806" stroke="black" stroke-width="2.23881"/>
</svg>
