<svg width="119" height="119" viewBox="0 0 119 119" fill="none" xmlns="http://www.w3.org/2000/svg">
<path d="M45.7078 26.9782C48.4347 24.2484 52.1349 22.7138 55.9932 22.7138C59.852 22.7138 63.5522 24.2484 66.2785 26.9782C66.7534 27.4524 67.5224 27.4524 67.9966 26.9782C68.4714 26.504 68.4714 25.7344 67.9966 25.2601C64.815 22.0726 60.4968 20.2817 55.9932 20.2817C51.4896 20.2817 47.1713 22.0726 43.9897 25.2601C43.5303 25.7361 43.5368 26.4922 44.0045 26.9599C44.4722 27.4276 45.2283 27.4341 45.7043 26.9747L45.7078 26.9782Z" fill="black"/>
<path d="M63.7057 31.9772C64.1965 31.9772 64.6381 31.6817 64.8258 31.2288C65.0135 30.7753 64.9099 30.2543 64.5629 29.9074C62.2931 27.6305 59.2098 26.3511 55.9945 26.3511C52.7791 26.3511 49.6964 27.6305 47.426 29.9074C47.111 30.2117 46.9843 30.6628 47.095 31.0867C47.2063 31.5106 47.5373 31.8416 47.9612 31.9523C48.3851 32.0636 48.8362 31.9369 49.1405 31.6219C50.9563 29.8003 53.4227 28.776 55.9945 28.776C58.5668 28.776 61.0332 29.8003 62.8484 31.6219C63.0757 31.8493 63.3842 31.9772 63.7057 31.9772Z" fill="black"/>
<path d="M50.8506 34.5342C50.5345 34.8374 50.406 35.2867 50.5143 35.7112C50.6233 36.1357 50.9519 36.4684 51.3752 36.5815C51.7979 36.6951 52.2496 36.5714 52.5557 36.2582C54.4833 34.4277 57.5074 34.4277 59.4351 36.2582C59.9134 36.7159 60.6701 36.7058 61.1354 36.2351C61.6007 35.7645 61.6031 35.0073 61.1401 34.5342C58.2931 31.7067 53.6977 31.7067 50.8506 34.5342Z" fill="black"/>
<path d="M72.9697 53.026C72.9697 53.6955 73.5126 54.2384 74.1822 54.2384H88.732C89.4016 54.2384 89.9445 53.6955 89.9445 53.026V51.8135H72.9697V53.026Z" fill="black"/>
<path d="M89.9445 26.3511H72.9697V49.3882H89.9445V26.3511ZM77.8197 39.6884H75.3947V37.2634H77.8197V39.6884ZM82.6696 39.6884H80.2446V37.2634H82.6696V39.6884ZM87.5195 39.6884H85.0945V37.2634H87.5195V39.6884Z" fill="black"/>
<path d="M89.9439 85.7627H63.0621C62.5464 87.2149 61.1729 88.1859 59.6318 88.1877H51.1445C49.6034 88.1859 48.2299 87.2149 47.7142 85.7627H22.0449V86.9752C22.0449 88.9845 23.6736 90.6126 25.6824 90.6126H86.3064C88.3152 90.6126 89.9439 88.9845 89.9439 86.9752V85.7627Z" fill="black"/>
<path d="M88.732 22.7134H74.1822C73.5126 22.7134 72.9697 23.2563 72.9697 23.9259H89.9445C89.9445 23.2563 89.4016 22.7134 88.732 22.7134Z" fill="black"/>
<path d="M24.4697 43.3258V83.3376H49.9318V84.5501C49.9318 85.2197 50.4747 85.7626 51.1443 85.7626H59.6317C60.3013 85.7626 60.8442 85.2197 60.8442 84.5501V83.3376H87.5188V56.6631H85.0938V80.9127H26.8947V44.5382H70.544V42.1133H25.6822C25.0126 42.1133 24.4697 42.6562 24.4697 43.3258Z" fill="black"/>
<path d="M70.5427 53.0258V46.9634H29.3184V78.4879H82.6675V56.6632H74.1802C72.1714 56.6632 70.5427 55.0351 70.5427 53.0258ZM52.3555 63.9381H49.9305V61.5132H52.3555V63.9381ZM57.2054 63.9381H54.7805V61.5132H57.2054V63.9381ZM62.0554 63.9381H59.6304V61.5132H62.0554V63.9381Z" fill="black"/>
<circle cx="59.0814" cy="59.0814" r="56.8768" stroke="black" stroke-width="4.40906"/>
</svg>
