<svg width="119" height="119" viewBox="0 0 119 119" fill="none" xmlns="http://www.w3.org/2000/svg">
<path d="M74.6214 47.8768H73.0489V44.9174C73.0489 37.0679 66.5851 30.6817 58.6401 30.6817C50.6953 30.6817 44.2316 37.0679 44.2316 44.9174V47.8768H42.6591C40.418 47.8768 38.5948 49.6781 38.5948 51.8924V77.9959C38.5948 80.2101 40.418 82.0115 42.6591 82.0115H74.6214C76.8625 82.0115 78.6857 80.2101 78.6857 77.9959V51.8924C78.6855 49.6781 76.8623 47.8768 74.6214 47.8768ZM56.8096 66.0188C55.6373 65.3647 54.9089 64.1334 54.9089 62.8057C54.9089 60.7731 56.5826 59.1196 58.6399 59.1196C60.6973 59.1196 62.3708 60.7733 62.3708 62.8057C62.3708 64.1336 61.6424 65.3647 60.4701 66.0188C60.0262 66.2665 59.7515 66.7313 59.7515 67.2351V70.7686H57.528V67.2351C57.5282 66.7313 57.2537 66.2665 56.8096 66.0188ZM51.9749 44.9176C51.9749 41.2865 54.9649 38.3325 58.6399 38.3325C62.3152 38.3325 65.3052 41.2867 65.3052 44.9176V47.877H51.9749V44.9176ZM89.9445 61.9717C89.9445 70.921 86.0567 78.4124 78.7011 83.6355L58.6401 97.8813L38.5786 83.6355C31.2236 78.4127 27.3359 70.9216 27.3359 61.9717V40.2681C33.8783 37.3208 39.2265 32.0366 42.2095 25.5728H75.0708C78.0538 32.0366 83.402 37.3207 89.9443 40.2679L89.9445 61.9717Z" fill="black"/>
<path d="M54.9089 62.8057C54.9089 64.1334 55.6373 65.3647 56.8096 66.0188C57.2537 66.2665 57.5282 66.7313 57.528 67.2351V70.7686H59.7515V67.2351C59.7515 66.7313 60.0262 66.2665 60.4701 66.0188C61.6424 65.3647 62.3708 64.1336 62.3708 62.8057C62.3708 60.7733 60.6973 59.1196 58.6399 59.1196C56.5826 59.1196 54.9089 60.7731 54.9089 62.8057Z" fill="black"/>
<circle cx="59.0814" cy="59.0814" r="56.8768" stroke="black" stroke-width="4.40906"/>
</svg>
